<svg xmlns="http://www.w3.org/2000/svg" viewBox="0 0 750 500"><g id="freepik--background-complete--inject-105"><rect x="485.01" y="280.97" width="5.62" height="42.05" transform="translate(185.83 789.82) rotate(-90)" style="fill:#e0e0e0"></rect><path d="M472.53,299.42a13.43,13.43,0,0,1,0,5.26,12.94,12.94,0,0,1,0-5.26Z" style="fill:#fafafa"></path><path d="M471.61,299.31a13.43,13.43,0,0,1,0,5.26,13.43,13.43,0,0,1,0-5.26Z" style="fill:#fafafa"></path><path d="M505.59,299.42a12.94,12.94,0,0,1,0,5.26,13.43,13.43,0,0,1,0-5.26Z" style="fill:#fafafa"></path><ellipse cx="504.68" cy="301.94" rx="0.26" ry="2.63" style="fill:#fafafa"></ellipse><path d="M499.18,302.17c0,.14-4.81.26-10.75.26s-10.76-.12-10.76-.26a107.16,107.16,0,0,1,10.76-.27A106.87,106.87,0,0,1,499.18,302.17Z" style="fill:#fafafa"></path><rect x="482.02" y="309.07" width="11.23" height="42.05" transform="translate(157.55 817.73) rotate(-90)" style="fill:#e0e0e0"></rect><path d="M509.2,332.55a1,1,0,0,1-.23.13c-.15.08-.39.19-.7.32a12,12,0,0,1-2.85.82,7.38,7.38,0,0,1-4.62-.66,6.11,6.11,0,0,1-2.2-2,4.64,4.64,0,0,1-.77-3.24,3.38,3.38,0,0,1,.78-1.67,2.17,2.17,0,0,1,1.77-.8,2.53,2.53,0,0,1,1.78,1,3.47,3.47,0,0,1,.82,1.91,5.13,5.13,0,0,1-1.45,4,6.44,6.44,0,0,1-4,2,10.83,10.83,0,0,1-4.7-.58A8.69,8.69,0,0,1,488.7,331a4.49,4.49,0,0,1-1-2.42,3.15,3.15,0,0,1,.9-2.53,2,2,0,0,1,1.31-.57,2.36,2.36,0,0,1,1.38.38,3.64,3.64,0,0,1,1.54,2.27,5.29,5.29,0,0,1-1.65,4.95,8.3,8.3,0,0,1-4.74,1.93,11.77,11.77,0,0,1-4.91-.49,6.78,6.78,0,0,1-3.73-2.9,5,5,0,0,1-.47-4.46,2.34,2.34,0,0,1,1.72-1.45,2.66,2.66,0,0,1,2.12.51,3.52,3.52,0,0,1,1,3.78,6.57,6.57,0,0,1-2.12,3,9.64,9.64,0,0,1-5.77,2.24,9.26,9.26,0,0,1-4.56-1,9,9,0,0,1-2.39-1.77,5.75,5.75,0,0,1-.5-.58c-.11-.14-.16-.21-.15-.22a10.7,10.7,0,0,0,3.13,2.39,9.15,9.15,0,0,0,4.46.92,9.26,9.26,0,0,0,5.54-2.23,6.16,6.16,0,0,0,2-2.81,3.09,3.09,0,0,0-.88-3.32,2.25,2.25,0,0,0-1.76-.42,1.88,1.88,0,0,0-1.38,1.19,4.51,4.51,0,0,0,.46,4,6.26,6.26,0,0,0,3.48,2.67,11,11,0,0,0,4.69.45,7.71,7.71,0,0,0,4.43-1.8,4.77,4.77,0,0,0,1.5-4.44,3.13,3.13,0,0,0-1.31-1.94,1.61,1.61,0,0,0-2.05.13,2.6,2.6,0,0,0-.74,2.1,4,4,0,0,0,.85,2.15,8.18,8.18,0,0,0,3.85,2.59,10.31,10.31,0,0,0,4.47.57,5.93,5.93,0,0,0,3.76-1.8,4.7,4.7,0,0,0,1.35-3.62,2.69,2.69,0,0,0-2.18-2.52,1.83,1.83,0,0,0-1.46.66,3.12,3.12,0,0,0-.7,1.48,4.29,4.29,0,0,0,.68,3,5.84,5.84,0,0,0,2.06,1.91,7.23,7.23,0,0,0,4.45.71,13.26,13.26,0,0,0,2.84-.71C508.87,332.67,509.19,332.53,509.2,332.55Z" style="fill:#fafafa"></path><rect x="479.77" y="295.57" width="19.49" height="38.29" transform="translate(174.8 804.23) rotate(-90)" style="fill:#ebebeb"></rect><path d="M476.73,305.64a82.3,82.3,0,0,1,.27,9.43,82.3,82.3,0,0,1-.27,9.43,86.79,86.79,0,0,1-.26-9.43A86.79,86.79,0,0,1,476.73,305.64Z" style="fill:#e0e0e0"></path><path d="M479.64,305.39a84.65,84.65,0,0,1,.26,9.31,84.77,84.77,0,0,1-.26,9.32,80.39,80.39,0,0,1-.27-9.32A80.28,80.28,0,0,1,479.64,305.39Z" style="fill:#e0e0e0"></path><path d="M504.33,304.77a88.94,88.94,0,0,1,.27,9.8,89,89,0,0,1-.27,9.81,93.9,93.9,0,0,1-.26-9.81A93.78,93.78,0,0,1,504.33,304.77Z" style="fill:#e0e0e0"></path><path d="M500.92,305a84.5,84.5,0,0,1,.27,9.55,84.61,84.61,0,0,1-.27,9.56,86.19,86.19,0,0,1-.26-9.56A86.07,86.07,0,0,1,500.92,305Z" style="fill:#e0e0e0"></path><rect x="242.39" y="83.06" width="258.14" height="171.23" style="fill:#e0e0e0"></rect><path d="M36.22,95.57A43.74,43.74,0,1,1,80.66,138.8,43.9,43.9,0,0,1,36.22,95.57Zm64.64-1a20.91,20.91,0,1,0-20.57,21.35A21,21,0,0,0,100.86,94.52Z" style="fill:#f5f5f5"></path><path d="M36.22,95.57a43.9,43.9,0,0,1,43-44.64l.37,22.92a21,21,0,0,0,.67,42l.37,22.93A43.89,43.89,0,0,1,36.22,95.57Z" style="fill:#e0e0e0"></path><path d="M75.32,47.4c28.22-.46,50.72,21.44,51.17,49.78l-26.7.43c-.21-13.55-10.52-22.08-24-21.86Z" style="fill:#ebebeb"></path><path d="M245.45,448c-1.12-1-3.63-4-1.69-7.57.7-1.3,2.21-1.94,3.57-2.52a14.37,14.37,0,0,0,3.93-2c2.12-1.81,2.71-4.82,4.12-7.23,1.62-2.77,4.65-4.85,7.84-4.7,3.66.17,6.71,3.15,8.1,6.56s1.43,7.2,1.46,10.88c0,2-.08,4.33-1.57,5.7s-3.45,1.28-5.32,1.23l-20-.62" style="fill:#f5f5f5"></path><path d="M283.71,393h-52.6l9.47,56.5a6.31,6.31,0,0,0,4.49,5l.19.05c.15,0,.31.09.47.12a7.28,7.28,0,0,0,1.07.13v.05l.26,0h23.45a6.69,6.69,0,0,0,1.28-.13,6.33,6.33,0,0,0,5.32-5.52l4.57-38.93.21-1.55h0l1.81-15.41Zm-9.93,36h-5.39l.54-16.39h6.25Zm1.93-16.39h5.17L279,429h-4.64Zm-15.42,34.57L260,432.94h7.77l-.47,14.25Zm-8.41-14.25h7.56l.33,14.25H253Zm.59,14.25h-6.33c-.61-3.85-1.39-8.85-2.24-14.25h7.46ZM251.58,429l-1.28-16.39H259l.38,16.39Zm8.29,0-.38-16.39h8.92L267.86,429Zm-.47-20.33-.35-15.18h10l-.5,15.18Zm-.52,0H250l-1.18-15.18h9.71Zm-9.4,0h-9.4c-.33-2.09-.65-4.08-.93-5.86-1-6.14-1.35-8.45-1.56-9.32H248.3Zm.3,3.94L251.06,429h-7.77c-.27-1.66-.53-3.34-.8-5-.6-3.87-1.21-7.74-1.79-11.36Zm-7,16.39h-5.08l-2.75-16.39h5.24C241,417.68,241.86,423.32,242.76,429Zm.61,3.93c.78,4.93,1.54,9.79,2.24,14.25h-4.88l-2.39-14.25Zm24.41,14.25.48-14.25h5.19l-1.22,14.25Zm1.28-38.51.51-15.18h7.25l-1.3,15.18Zm-32-15.18c.21,1.1,1.17,7.07,2.45,15.18h-5.28l-2.54-15.18Zm39.72,53.69h-4.06L274,432.94h4.52Zm4.52-38.51H276l1.3-15.18h5.78Z" style="fill:#e0e0e0"></path><rect x="653.01" y="109.74" width="11.33" height="45.24" style="fill:#e0e0e0"></rect><rect x="669.67" y="119.61" width="11.33" height="35.37" style="fill:#e0e0e0"></rect><rect x="686.58" y="127.69" width="11.33" height="27.29" style="fill:#e0e0e0"></rect><rect x="702.23" y="138.78" width="11.33" height="16.21" style="fill:#e0e0e0"></rect><path d="M695.33,211.25a39.18,39.18,0,0,0-55.09,1.86,38.63,38.63,0,0,0,1.87,54.77,39.19,39.19,0,0,0,55.1-1.87A38.62,38.62,0,0,0,695.33,211.25Zm-13,41a18.74,18.74,0,0,1-26.34.89,18.48,18.48,0,0,1-.9-26.19,18.76,18.76,0,0,1,26.35-.89A18.47,18.47,0,0,1,682.34,252.21Z" style="fill:#f5f5f5"></path><path d="M640.24,213.11a39.18,39.18,0,0,1,55.09-1.86L681.45,226a18.76,18.76,0,0,0-26.35.89,18.48,18.48,0,0,0,.9,26.19l-13.89,14.78A38.63,38.63,0,0,1,640.24,213.11Z" style="fill:#ebebeb"></path><path d="M693.74,204.91c19.24,17.87,21.55,46.92,3.57,66L677.79,254c8.6-9.14,10.46-21.35,1.26-29.9Z" style="fill:#fafafa"></path><rect x="165.4" y="275.34" width="110.45" height="31.11" rx="3.23" style="fill:#e0e0e0"></rect><ellipse cx="183.43" cy="291.86" rx="6.73" ry="6.76" style="fill:#f5f5f5"></ellipse><path d="M187.21,289.56a27.84,27.84,0,0,1-3.62,3.91c-.3.3-.6.58-.89.86l-.18.18-.17-.18a18.8,18.8,0,0,1-2.7-3.07,19.43,19.43,0,0,1,3.06,2.71h-.36l.88-.87A27.63,27.63,0,0,1,187.21,289.56Z" style="fill:#e0e0e0"></path><path d="M265,288.52c0,.14-14.83.26-33.11.26s-33.11-.12-33.11-.26,14.82-.26,33.11-.26S265,288.37,265,288.52Z" style="fill:#fafafa"></path><path d="M265.27,294.15c0,.15-14.83.26-33.11.26s-33.11-.11-33.11-.26,14.82-.26,33.11-.26S265.27,294,265.27,294.15Z" style="fill:#fafafa"></path><polygon points="614.07 298.25 612.05 455.25 702.38 455.25 702.38 300.39 614.07 298.25" style="fill:#f5f5f5"></polygon><polygon points="662.74 299.43 661.94 455.25 702.38 455.25 702.38 300.39 662.74 299.43" style="fill:#e0e0e0"></polygon><polygon points="616.91 301.08 616.91 333.19 659.7 333.19 659.7 302.6 616.91 301.08" style="fill:#e0e0e0"></polygon><polygon points="631.66 309.91 631.66 314.66 644.75 314.66 644.75 309.48 631.66 309.91" style="fill:#f5f5f5"></polygon><rect x="631.66" y="318.64" width="13.52" height="1.94" style="fill:#f5f5f5"></rect><polygon points="616.91 413.61 616.91 445.72 659.7 445.72 659.7 415.13 616.91 413.61" style="fill:#e0e0e0"></polygon><polygon points="631.66 422.44 631.66 427.19 644.75 427.19 644.75 422.01 631.66 422.44" style="fill:#f5f5f5"></polygon><rect x="631.66" y="431.17" width="13.52" height="1.94" style="fill:#f5f5f5"></rect><polygon points="616.91 337.28 616.91 369.39 659.7 369.39 659.7 338.8 616.91 337.28" style="fill:#e0e0e0"></polygon><polygon points="631.66 346.11 631.66 350.86 644.75 350.86 644.75 345.68 631.66 346.11" style="fill:#f5f5f5"></polygon><rect x="631.66" y="354.84" width="13.52" height="1.94" style="fill:#f5f5f5"></rect><rect x="616.35" y="375.73" width="42.79" height="32.11" style="fill:#e0e0e0"></rect><polygon points="631.39 390.2 631.39 394.66 643.7 394.66 643.7 389.8 631.39 390.2" style="fill:#f5f5f5"></polygon><rect x="631.39" y="398.41" width="12.71" height="1.82" style="fill:#f5f5f5"></rect></g><g id="freepik--Floor--inject-105"><path d="M705.78,453.89c0,.15-148.11.26-330.76.26s-330.8-.11-330.8-.26,148.08-.26,330.8-.26S705.78,453.75,705.78,453.89Z" style="fill:#263238"></path></g><g id="freepik--Screens--inject-105"><rect x="226.92" y="87.35" width="267.33" height="175.35" style="fill:#fafafa"></rect><path d="M494.25,262.7c0-1.69-.08-68.4-.21-175.35l.21.21-267.31,0h0l.26-.26c0,62.36,0,121.7,0,175.35l-.24-.24,267.33.24-267.33.24h-.24v-.24c0-53.65,0-113,0-175.35v-.26h.28l267.31.06h.21v.2C494.33,194.3,494.25,261,494.25,262.7Z" style="fill:#263238"></path><path d="M308.62,184.18l26.29.37c-.2,14-12,25.43-26.29,25.43h-.16Z" style="fill:#455a64"></path><path d="M352.1,219.79a3.22,3.22,0,0,1-.57,0l-1.6,0-5.88.07H344l-.05-.06c-2.35-2.95-5.37-6.77-8.67-10.93l-7-8.91.14.06-7.74-.07L318.5,200a3.6,3.6,0,0,1-.77,0,4.69,4.69,0,0,1,.77-.05l2.16,0,7.74-.07h.08l0,.06,7,8.89,8.6,11-.12-.06,5.88.07,1.6,0A2.6,2.6,0,0,1,352.1,219.79Z" style="fill:#263238"></path><path d="M361.53,222.82c0,.11-3.81.2-8.51.2s-8.51-.09-8.51-.2,3.81-.2,8.51-.2S361.53,222.71,361.53,222.82Z" style="fill:#263238"></path><path d="M361.53,226c0,.11-3.81.2-8.51.2s-8.51-.09-8.51-.2,3.81-.2,8.51-.2S361.53,225.86,361.53,226Z" style="fill:#263238"></path><path d="M304.46,180.44l-.37,25.8c-14.28-.2-25.93-11.78-25.93-25.8s11.87-25.79,26.3-25.79,26.3,11.64,26.3,25.79Z" style="fill:#BA68C8"></path><path d="M294.19,172a1.88,1.88,0,0,1-.45.1l-1.31.21-4.72.67h-.08l-.06-.06-6.3-6.13c-3-3-5.75-5.67-7.71-7.64l-2.3-2.35a6.85,6.85,0,0,1-.81-.9,6.42,6.42,0,0,1,.92.79l2.39,2.25c2,1.92,4.76,4.59,7.79,7.56l6.25,6.18-.14,0,4.75-.52,1.31-.12A1.29,1.29,0,0,1,294.19,172Z" style="fill:#263238"></path><path d="M263.79,154.78c0,.11-3.81.2-8.51.2s-8.5-.09-8.5-.2,3.8-.2,8.5-.2S263.79,154.67,263.79,154.78Z" style="fill:#263238"></path><path d="M263.79,157.93c0,.11-3.81.2-8.51.2s-8.5-.09-8.5-.2,3.8-.2,8.5-.2S263.79,157.82,263.79,157.93Z" style="fill:#263238"></path><path d="M396.45,129.48l-.1-16a20.5,20.5,0,0,0-13.23,5.16,19,19,0,0,0-6.37,16.6,22.13,22.13,0,0,0,.38,2.33.13.13,0,0,0,0,.06h0l19.31-4.35Z" style="fill:#BA68C8"></path><g style="opacity:0.30000000000000004"><path d="M396.45,129.48l-.1-16a20.5,20.5,0,0,0-13.23,5.16,19,19,0,0,0-6.37,16.6,22.13,22.13,0,0,0,.38,2.33.13.13,0,0,0,0,.06h0l19.31-4.35Z" style="fill:#fff"></path></g><path d="M416.36,124.55a19,19,0,0,0-15.59-10.91l-.61-.06-.39,0c-.38,0-.77,0-1.16,0h-.11l.11,16,0,3.76L418,137.53h0a18.57,18.57,0,0,0,.43-4.15A20.71,20.71,0,0,0,416.36,124.55Z" style="fill:#BA68C8"></path><g style="opacity:0.30000000000000004"><path d="M416.36,124.55a19,19,0,0,0-15.59-10.91l-.61-.06-.39,0c-.38,0-.77,0-1.16,0h-.11l.11,16,0,3.76L418,137.53h0a18.57,18.57,0,0,0,.43-4.15A20.71,20.71,0,0,0,416.36,124.55Z"></path></g><path d="M397.49,135.25l-19.32,4.35a19.8,19.8,0,0,0,38.66-.13l-19.32-4.22" style="fill:#BA68C8"></path><path d="M472.67,132.37c0,.14-10,.26-22.3.26s-22.31-.12-22.31-.26,10-.27,22.31-.27S472.67,132.22,472.67,132.37Z" style="fill:#263238"></path><path d="M472.67,127.28c0,.14-10,.26-22.3.26s-22.31-.12-22.31-.26,10-.26,22.31-.26S472.67,127.14,472.67,127.28Z" style="fill:#263238"></path><path d="M472.67,122.2c0,.14-10,.26-22.3.26s-22.31-.12-22.31-.26,10-.26,22.31-.26S472.67,122.05,472.67,122.2Z" style="fill:#263238"></path><path d="M472.67,137.1c0,.14-10,.26-22.3.26s-22.31-.12-22.31-.26,10-.27,22.31-.27S472.67,137,472.67,137.1Z" style="fill:#263238"></path><path d="M458.86,142.24c0,.15-6.86.26-15.32.26s-15.32-.11-15.32-.26,6.86-.26,15.32-.26S458.86,142.1,458.86,142.24Z" style="fill:#263238"></path><rect x="381.29" y="179.05" width="4.59" height="51.31" style="fill:#BA68C8"></rect><rect x="390.16" y="196.47" width="4.59" height="33.88" style="fill:#BA68C8"></rect><rect x="399.03" y="185.42" width="4.59" height="45.19" style="fill:#BA68C8"></rect><rect x="407.9" y="181.03" width="4.59" height="49.33" style="fill:#BA68C8"></rect><rect x="416.76" y="197.51" width="4.59" height="32.84" style="fill:#BA68C8"></rect><rect x="425.63" y="203.95" width="4.59" height="26.4" style="fill:#BA68C8"></rect><rect x="434.5" y="184.31" width="4.59" height="46.04" style="fill:#BA68C8"></rect><rect x="443.37" y="192.61" width="4.59" height="37.74" style="fill:#BA68C8"></rect><rect x="452.24" y="185.98" width="4.59" height="44.37" style="fill:#BA68C8"></rect><rect x="461.11" y="200.12" width="4.59" height="30.23" style="fill:#BA68C8"></rect><rect x="469.98" y="194.37" width="4.59" height="35.98" style="fill:#BA68C8"></rect><path d="M476.45,233.93c0,.1-21.79.19-48.67.19s-48.67-.09-48.67-.19,21.79-.19,48.67-.19S476.45,233.82,476.45,233.93Z" style="fill:#263238"></path><path d="M387.84,238a32.39,32.39,0,0,1-6.82,0,30.7,30.7,0,0,1,6.82,0Z" style="fill:#263238"></path><path d="M399.15,238.17a43.79,43.79,0,0,1-8.15,0,43.79,43.79,0,0,1,8.15,0Z" style="fill:#263238"></path><path d="M408.8,238.17a43.79,43.79,0,0,1-8.15,0,43.79,43.79,0,0,1,8.15,0Z" style="fill:#263238"></path><path d="M418.44,238.17a43.79,43.79,0,0,1-8.15,0,43.79,43.79,0,0,1,8.15,0Z" style="fill:#263238"></path><path d="M428.09,238.17a43.79,43.79,0,0,1-8.15,0,43.79,43.79,0,0,1,8.15,0Z" style="fill:#263238"></path><path d="M437.73,238.17a43.79,43.79,0,0,1-8.15,0,43.79,43.79,0,0,1,8.15,0Z" style="fill:#263238"></path><path d="M447.38,238.17a43.79,43.79,0,0,1-8.15,0,43.79,43.79,0,0,1,8.15,0Z" style="fill:#263238"></path><path d="M457,238.17a43.79,43.79,0,0,1-8.15,0,43.79,43.79,0,0,1,8.15,0Z" style="fill:#263238"></path><path d="M466.67,238.17a43.79,43.79,0,0,1-8.15,0,43.79,43.79,0,0,1,8.15,0Z" style="fill:#263238"></path><path d="M476.32,238.17a43.79,43.79,0,0,1-8.15,0,43.79,43.79,0,0,1,8.15,0Z" style="fill:#263238"></path><g style="opacity:0.30000000000000004"><rect x="390.16" y="196.47" width="4.59" height="33.88" style="fill:#fff"></rect></g><g style="opacity:0.30000000000000004"><rect x="407.9" y="181.03" width="4.59" height="49.33" style="fill:#fff"></rect></g><g style="opacity:0.30000000000000004"><rect x="425.63" y="203.95" width="4.59" height="26.4" style="fill:#fff"></rect></g><g style="opacity:0.30000000000000004"><rect x="443.37" y="192.61" width="4.59" height="37.74" style="fill:#fff"></rect></g><g style="opacity:0.30000000000000004"><rect x="461.11" y="200.12" width="4.59" height="30.23" style="fill:#fff"></rect></g><path d="M259.4,120.31a4.43,4.43,0,1,1-4.42-4.42A4.42,4.42,0,0,1,259.4,120.31Z" style="fill:#BA68C8"></path><path d="M335.43,116.82c0,.15-14.91.26-33.3.26s-33.3-.11-33.3-.26,14.9-.26,33.3-.26S335.43,116.68,335.43,116.82Z" style="fill:#BA68C8"></path><path d="M295.56,122.17a3.69,3.69,0,0,1-1,.1l-2.81.09c-2.38,0-5.66.07-9.28.07s-6.91,0-9.28-.07l-2.82-.09a3.77,3.77,0,0,1-1-.1,4.35,4.35,0,0,1,1-.1c.67,0,1.63-.06,2.82-.08,2.37,0,5.65-.08,9.28-.08s6.9,0,9.28.08c1.19,0,2.15.05,2.81.08A4.25,4.25,0,0,1,295.56,122.17Z" style="fill:#BA68C8"></path><rect x="81.56" y="103.23" width="139.91" height="159.68" style="fill:#fafafa"></rect><path d="M221.48,262.9s0-.26,0-.75,0-1.25,0-2.22c0-2,0-4.85,0-8.62,0-7.54,0-18.57-.06-32.58,0-28-.07-67.89-.11-115.5l.23.23-139.9,0h0l.26-.26c0,58.87,0,113.77,0,159.67l-.22-.22L183,262.8l28.38.06,7.48,0,2.58,0-2.54,0-7.43,0-28.33.06-101.62.11h-.22v-.23c0-45.9,0-100.8,0-159.67V103h.28l139.9,0h.23v.23c-.05,47.67-.09,87.61-.12,115.65,0,14-.05,25-.06,32.52,0,3.75,0,6.63,0,8.58,0,1,0,1.69,0,2.19S221.48,262.9,221.48,262.9Z" style="fill:#263238"></path><path d="M209.45,184.76c0,.1-1.55-.78-4.5-1.71a29,29,0,0,0-12.9-1,28.36,28.36,0,0,0-8.51,2.74,39.62,39.62,0,0,0-8.37,6c-2.74,2.42-5.47,5.17-8.61,7.71a29.68,29.68,0,0,1-11,5.94,16.36,16.36,0,0,1-6.41.39,21.13,21.13,0,0,1-5.95-1.83,104.8,104.8,0,0,1-10-5.93,30.74,30.74,0,0,0-9.36-4.19,27.67,27.67,0,0,0-8.91-.69,28.6,28.6,0,0,0-12.3,4c-2.64,1.61-3.88,2.82-4,2.74a5,5,0,0,1,.89-.88,22,22,0,0,1,2.86-2.18,28.12,28.12,0,0,1,21.59-3.78,31.75,31.75,0,0,1,9.64,4.22,103.91,103.91,0,0,0,9.9,5.82,16.91,16.91,0,0,0,11.73,1.38A29.17,29.17,0,0,0,166,197.83c3.1-2.49,5.83-5.22,8.62-7.65a40.21,40.21,0,0,1,8.59-6.06,28.44,28.44,0,0,1,21.89-1.42,22.11,22.11,0,0,1,3.3,1.42A6.45,6.45,0,0,1,209.45,184.76Z" style="fill:#BA68C8"></path><rect x="120.07" y="206.21" width="11.89" height="32.17" style="fill:#BA68C8"></rect><rect x="170.55" y="206.21" width="11.89" height="32.17" style="fill:#BA68C8"></rect><rect x="187.37" y="187.31" width="11.89" height="51.06" style="fill:#BA68C8"></rect><rect x="104.68" y="228.25" width="11.89" height="10.83" style="fill:#BA68C8"></rect><rect x="136.9" y="220.73" width="11.9" height="17.64" style="fill:#BA68C8"></rect><rect x="153.72" y="216.68" width="11.89" height="21.69" style="fill:#BA68C8"></rect><path d="M132.45,242.17c0,.26-2.88.48-6.43.48s-6.43-.22-6.43-.48,2.88-.48,6.43-.48S132.45,241.9,132.45,242.17Z" style="fill:#263238"></path><path d="M117.65,242.17c0,.26-2.88.48-6.43.48s-6.43-.22-6.43-.48,2.88-.48,6.43-.48S117.65,241.9,117.65,242.17Z" style="fill:#263238"></path><path d="M201.61,242.17c0,.26-3.25.48-7.26.48s-7.27-.22-7.27-.48,3.25-.48,7.27-.48S201.61,241.9,201.61,242.17Z" style="fill:#263238"></path><ellipse cx="176.68" cy="242.17" rx="7.26" ry="0.48" style="fill:#263238"></ellipse><path d="M165.62,242.17c0,.26-2.88.48-6.43.48s-6.43-.22-6.43-.48,2.88-.48,6.43-.48S165.62,241.9,165.62,242.17Z" style="fill:#263238"></path><path d="M148.23,242.17c0,.26-2.87.48-6.42.48s-6.43-.22-6.43-.48,2.88-.48,6.43-.48S148.23,241.9,148.23,242.17Z" style="fill:#263238"></path><rect x="104.4" y="126.51" width="97.21" height="40.37" style="fill:#e0e0e0"></rect><path d="M124.6,139.26a4.54,4.54,0,1,1-4.54-4.53A4.54,4.54,0,0,1,124.6,139.26Z" style="fill:#263238"></path><rect x="129.13" y="136.13" width="31.58" height="1.75" style="fill:#263238"></rect><rect x="129.13" y="140.12" width="61.43" height="1.75" style="fill:#fff"></rect><path d="M124.6,153.2a4.54,4.54,0,1,1-4.54-4.53A4.53,4.53,0,0,1,124.6,153.2Z" style="fill:#BA68C8"></path><rect x="129.13" y="150.07" width="16.12" height="1.75" style="fill:#BA68C8"></rect><rect x="129.13" y="154.05" width="61.43" height="1.75" style="fill:#fff"></rect><rect x="507.36" y="74.56" width="153.64" height="175.35" style="fill:#fafafa"></rect><path d="M661,249.91s0-.29,0-.83,0-1.37,0-2.44c0-2.15,0-5.32,0-9.46,0-8.28,0-20.39-.06-35.77,0-30.75-.07-74.56-.11-126.85l.23.23-153.63,0h0l.27-.26c0,64.65,0,124.94-.05,175.35l-.22-.22,111.45.11,31.15.06,8.21,0,2.84,0s-.94,0-2.79,0l-8.17,0L619,250l-111.59.11h-.22v-.22c0-50.41,0-110.7,0-175.35V74.3h.28l153.63,0h.23v.23c0,52.35-.09,96.21-.12,127,0,15.37,0,27.46-.06,35.73,0,4.11,0,7.27,0,9.41v2.41C661,249.64,661,249.91,661,249.91Z" style="fill:#263238"></path><rect x="519.66" y="88.58" width="124.46" height="99.85" style="fill:#e0e0e0"></rect><rect x="528.35" y="170.68" width="4.08" height="1.18" style="fill:#263238"></rect><rect x="537.6" y="176.97" width="5.22" height="1.18" style="fill:#263238"></rect><rect x="555.78" y="176.97" width="5.22" height="1.18" style="fill:#263238"></rect><rect x="573.97" y="176.97" width="5.22" height="1.18" style="fill:#263238"></rect><rect x="592.15" y="176.97" width="5.22" height="1.18" style="fill:#263238"></rect><rect x="610.34" y="176.97" width="5.22" height="1.18" style="fill:#263238"></rect><rect x="628.52" y="176.97" width="5.22" height="1.18" style="fill:#263238"></rect><rect x="528.35" y="154.95" width="4.08" height="1.18" style="fill:#263238"></rect><rect x="528.35" y="125.37" width="4.08" height="1.18" style="fill:#263238"></rect><rect x="528.35" y="110.5" width="4.08" height="1.18" style="fill:#263238"></rect><rect x="528.56" y="140.16" width="4.08" height="1.18" style="fill:#263238"></rect><path d="M633.6,171.85a2.5,2.5,0,0,1-.44,0l-1.28,0-5,0-18.17.09-60,.07H534.31v-.26c0-20,.07-37.69.09-50.35,0-6.3.06-11.36.08-14.87,0-1.72,0-3.06,0-4,0-.44,0-.78,0-1a1.35,1.35,0,0,1,0-.35,1.35,1.35,0,0,1,0,.35c0,.26,0,.6,0,1,0,.94,0,2.28,0,4,0,3.51.05,8.57.08,14.87,0,12.66,0,30.31.09,50.35l-.26-.25h14.21l60,.08,18.17.08,5,.05,1.28,0Z" style="fill:#263238"></path><path d="M634.75,140.75c0,.14-21.54.26-48.11.26s-48.12-.12-48.12-.26,21.54-.26,48.12-.26S634.75,140.61,634.75,140.75Z" style="fill:#263238"></path><path d="M634.75,126c0,.15-21.54.26-48.11.26s-48.12-.11-48.12-.26,21.54-.26,48.12-.26S634.75,125.81,634.75,126Z" style="fill:#263238"></path><path d="M634.75,111.08c0,.15-21.54.26-48.11.26s-48.12-.11-48.12-.26,21.54-.26,48.12-.26S634.75,110.94,634.75,111.08Z" style="fill:#263238"></path><path d="M634.75,155.54c0,.15-21.54.26-48.11.26s-48.12-.11-48.12-.26,21.54-.26,48.12-.26S634.75,155.4,634.75,155.54Z" style="fill:#263238"></path><path d="M539.51,168.67V155.54l8.18-12.7,5.56,4.26,11.39-17.7,6.72,4.73,9.35-16.33,7.6,6.19,11.39-21.66L612,126.54l9.93-12.11,11.69-3.35v57.59Z" style="fill:#455a64"></path><path d="M634.75,106.42s-.07,0-.21,0l-.61,0-2.37,0-9,.07.12-.06-9.6,12.57-.06.08H613l-24.06,0,.21-.12c-3.17,5.27-6.58,11-10.11,16.84l-9.94,16.51-.19.32-.23-.3c-4.74-6.54-9.14-12.59-13-17.93H556L544.05,153l-3.33,5.11-.89,1.33c-.2.3-.32.45-.32.45s.08-.17.27-.48l.83-1.37,3.24-5.17,11.75-18.61.17-.27.18.26L569,152.16l-.42,0,9.92-16.52,10.13-16.83.07-.12h.15l24.06,0-.16.08,9.69-12.49,0-.06h.07l9,.07,2.37,0,.61,0Z" style="fill:#BA68C8"></path><path d="M559.73,138.61a.93.93,0,1,1-.93-.89A.91.91,0,0,1,559.73,138.61Z" style="fill:#BA68C8"></path><path d="M587.48,122.83a.93.93,0,1,1-.92-.88A.91.91,0,0,1,587.48,122.83Z" style="fill:#BA68C8"></path><path d="M609.06,119a.93.93,0,1,1-.93-.89A.91.91,0,0,1,609.06,119Z" style="fill:#BA68C8"></path><path d="M638.51,203.27c0,.15-26.26.26-58.65.26s-58.66-.11-58.66-.26,26.26-.26,58.66-.26S638.51,203.13,638.51,203.27Z" style="fill:#263238"></path><path d="M638.51,209.61c0,.15-26.26.26-58.65.26s-58.66-.11-58.66-.26,26.26-.26,58.66-.26S638.51,209.47,638.51,209.61Z" style="fill:#263238"></path><path d="M638.51,216c0,.14-26.26.26-58.65.26s-58.66-.12-58.66-.26,26.26-.26,58.66-.26S638.51,215.81,638.51,216Z" style="fill:#263238"></path><path d="M638.51,222.3c0,.14-26.26.26-58.65.26s-58.66-.12-58.66-.26,26.26-.26,58.66-.26S638.51,222.15,638.51,222.3Z" style="fill:#263238"></path></g><g id="freepik--character-2--inject-105"><path d="M592.18,219.81c3.21-5.39,4.15-12.57,5-18.79.38-2.93,1.06-7.09-1-8.93s-2.4-5-4.93-6.51a7.78,7.78,0,0,0-8.36.07" style="fill:#263238"></path><path d="M583.28,238.9h0a8.66,8.66,0,0,1-9.32-8.3c-.18-4.72-.34-9.48-.34-9.48s-7.14-.67-7.66-7.74-.28-23.39-.28-23.39h0a24.63,24.63,0,0,1,24.9,1.6l-.44,24.88v13.39C590.09,234.35,587.76,238.56,583.28,238.9Z" style="fill:#ffbe9d"></path><path d="M573,204.75a3.62,3.62,0,0,1,4.83-1.06,4.12,4.12,0,0,1,1.37,5.14,5.43,5.43,0,0,1-3.47,2.62,2.73,2.73,0,0,0-2.13,2.93c.21,1.77,3.16,2.44,4.49,3.91,2.07,2.28,6.62,3.25,9.69,3.61s2.64.38,4.39-2.09a9.41,9.41,0,0,0,1.72-5.74l.33-15.64a22.39,22.39,0,0,0-.36-5.61,7.52,7.52,0,0,0-3-4.64c-1.72-1.13-3.9-1.23-5.85-1.86-2.45-.79-4.53-2.42-6.82-3.59s-5.1-1.87-7.4-.72c-1.65.83-2.76,2.48-4.37,3.39-2.28,1.3-5.39,1-6.5,4.37a5.59,5.59,0,0,0,0,3.59c1.55,4.58,7.21,6.42,11.29,4.44.08.78-.68,2.5.13,4.95.26.78.36,2,1.58,2" style="fill:#263238"></path><path d="M574.27,209.16c.06,0,.3.37.89.34a1.66,1.66,0,0,0,1.32-1.62,1.77,1.77,0,0,0-1.21-1.76c-.59-.21-1-.1-1-.18s.39-.32,1.12-.17a2.17,2.17,0,0,1,1.11.64,2.08,2.08,0,0,1,.52,1.5,1.94,1.94,0,0,1-1.84,2,1.06,1.06,0,0,1-.79-.39C574.24,209.29,574.24,209.17,574.27,209.16Z" style="fill:#eb996e"></path><path d="M581.63,187.84s.15-.27.59-.6a4.86,4.86,0,0,1,2.15-.83,6.18,6.18,0,0,1,3.38.51,7.74,7.74,0,0,1,3.12,2.79,15.86,15.86,0,0,1,2.2,7.16,18.88,18.88,0,0,1,.19,3.09,17.28,17.28,0,0,1-.56-3,17,17,0,0,0-2.26-6.92,7.53,7.53,0,0,0-2.89-2.64,5.71,5.71,0,0,0-5.92.48Z" style="fill:#455a64"></path><path d="M561.72,195.08a.69.69,0,0,1-.27,0,2.14,2.14,0,0,1-.7-.32,2.59,2.59,0,0,1-.82-.92,2.34,2.34,0,0,1-.22-1.64,2.69,2.69,0,0,1,1.14-1.65,3.86,3.86,0,0,1,2.24-.44,3.06,3.06,0,0,0,2.13-.54,15,15,0,0,0,1.73-1.86,8.76,8.76,0,0,1,4.41-2.54,9.43,9.43,0,0,1,4.14-.1,8,8,0,0,1,2.61,1,3.19,3.19,0,0,1,.81.62,12.5,12.5,0,0,0-3.48-1.26,9.41,9.41,0,0,0-4,.19,8.5,8.5,0,0,0-4.13,2.43,14.83,14.83,0,0,1-1.81,1.92,2.94,2.94,0,0,1-1.22.55,5.76,5.76,0,0,1-1.23.06,3.47,3.47,0,0,0-2,.32,2.32,2.32,0,0,0-1,1.38,2.27,2.27,0,0,0,.8,2.31A5.88,5.88,0,0,0,561.72,195.08Z" style="fill:#455a64"></path><path d="M580.64,214.75c0-.05.35-.18.93-.57A5.85,5.85,0,0,0,583.5,212a5.35,5.35,0,0,0,.32-4.14,5.29,5.29,0,0,0-1.28-2.13,10.31,10.31,0,0,0-2.21-1.61c-.83-.48-1.67-.93-2.43-1.45a8.07,8.07,0,0,1-2-1.85,8.54,8.54,0,0,1-1.66-4.18,7.81,7.81,0,0,1,.24-3,3.37,3.37,0,0,1,.28-.77c.08-.18.13-.26.14-.25a10.68,10.68,0,0,0-.29,4,8.45,8.45,0,0,0,1.67,3.94,8.1,8.1,0,0,0,1.86,1.72c.74.49,1.57.93,2.41,1.42a10.39,10.39,0,0,1,2.32,1.71,5.75,5.75,0,0,1,1.37,2.33,5.67,5.67,0,0,1-.46,4.47,5.6,5.6,0,0,1-2.14,2.14A2.75,2.75,0,0,1,580.64,214.75Z" style="fill:#455a64"></path><path d="M592.9,204.37a3.07,3.07,0,0,1-.91.21,13.92,13.92,0,0,1-2.55.07,15.67,15.67,0,0,1-7.88-2.71,12.5,12.5,0,0,1-5.18-6.51,5.42,5.42,0,0,1-.1-2.56,2,2,0,0,1,.35-.87,6.32,6.32,0,0,0,.11,3.33,12.78,12.78,0,0,0,5.11,6.18,16.59,16.59,0,0,0,7.62,2.77C591.57,204.51,592.89,204.27,592.9,204.37Z" style="fill:#455a64"></path><path d="M594,199.53a12.51,12.51,0,0,1,9.75-4.42c3.68.21,7.27,2.76,8.17,6.33.68,2.7-.15,5.51-.49,8.26s0,6,2.23,7.61c1.36,1,3.11,1.16,4.74,1.56s3.36,1.21,3.92,2.79c.64,1.81-.67,3.86-2.43,4.63a9,9,0,0,1-5.66.08,4.73,4.73,0,0,1-2.1,5.66,6.25,6.25,0,0,1-6.28-.26,9.38,9.38,0,0,1-3.83-5.2c-1.21,2.13-4.39,2.58-6.43,1.22a6.72,6.72,0,0,1-2.6-6.46,12.5,12.5,0,0,1,3.26-6.46,16.21,16.21,0,0,0,2.27-2.9,3.67,3.67,0,0,0,.14-3.53,2.12,2.12,0,0,0-3.14-.63" style="fill:#263238"></path><path d="M598.27,207a2.44,2.44,0,0,1-2.12,0,5.09,5.09,0,0,1-3.08-4,5.24,5.24,0,0,1,.33-2.87,5.43,5.43,0,0,1,1.36-1.92,3.43,3.43,0,0,1,1.86-1,16.13,16.13,0,0,0-1.6,1.3,5.24,5.24,0,0,0-1.44,4.45,5,5,0,0,0,2.71,3.76A5.16,5.16,0,0,0,598.27,207Z" style="fill:#BA68C8"></path><path d="M573.39,221a3.33,3.33,0,0,1-1.62-.16,8.74,8.74,0,0,1-5.72-5.06,3.29,3.29,0,0,1-.36-1.58,11.55,11.55,0,0,1,.69,1.43,10.05,10.05,0,0,0,2.29,3,10.26,10.26,0,0,0,3.21,1.91A10.14,10.14,0,0,1,573.39,221Z" style="fill:#eb996e"></path><path d="M600.61,226.79s-.13,0-.35,0a3.33,3.33,0,0,1-.92-.41,5,5,0,0,1-2-3.05,6.44,6.44,0,0,1-.09-2.57,10.15,10.15,0,0,1,.94-2.78c.89-1.87,2.29-3.64,3.33-5.69a10,10,0,0,0,1-3.15,6.09,6.09,0,0,0-3.93-6.56,6.48,6.48,0,0,0-3.5-.21c-.83.17-1.25.4-1.27.36s.09-.08.29-.2a5.33,5.33,0,0,1,.93-.36,6.29,6.29,0,0,1,7.59,3.79,6.61,6.61,0,0,1,.4,3.24,10.62,10.62,0,0,1-1.09,3.32c-1.08,2.12-2.49,3.87-3.37,5.67a7.56,7.56,0,0,0-.92,5.06,5,5,0,0,0,1.76,3A7.75,7.75,0,0,0,600.61,226.79Z" style="fill:#455a64"></path><path d="M611.27,232a2.12,2.12,0,0,1-.44,0,5,5,0,0,1-1.26-.22,7.13,7.13,0,0,1-3.69-2.87,10.92,10.92,0,0,1-1.58-6.74,66.92,66.92,0,0,1,1.36-8.37,19.89,19.89,0,0,0,.3-4.31,11.21,11.21,0,0,0-.91-3.86,7,7,0,0,0-5-4.14,10.21,10.21,0,0,0-4.55,0c-1.07.24-1.63.48-1.65.43s.13-.09.39-.21a10.52,10.52,0,0,1,1.21-.42,9.91,9.91,0,0,1,4.68-.17,7.43,7.43,0,0,1,3,1.34,7.7,7.7,0,0,1,2.33,3,11.3,11.3,0,0,1,1,4,19,19,0,0,1-.29,4.42,77.13,77.13,0,0,0-1.4,8.31,10.73,10.73,0,0,0,1.42,6.51,7.06,7.06,0,0,0,3.44,2.88A11,11,0,0,0,611.27,232Z" style="fill:#455a64"></path><polygon points="613.4 264.17 598.35 275.91 604.66 286.29 622.8 272.93 613.4 264.17" style="fill:#ffbe9d"></polygon><path d="M573.12,224.7s.08-1.26-3.21-1.44a33.63,33.63,0,0,0-3.65-.12,8.34,8.34,0,0,1-1.57-3,9.21,9.21,0,0,1,.7-3.1l3.33-.3-.9-2.26-2.35.16-6.61.8L556.23,227l-18.06,33.7a8.71,8.71,0,0,0,3.45,12.67h0c4.67,2.26,10.92-2.53,12.65-7.42l10-37.49,3.52-2.74,5-.92" style="fill:#ffbe9d"></path><path d="M532,449,556.55,307.6h0c.06-.21.11-.41.16-.61v0h0c4.19-16.59,10.64-21.9,10.64-21.9l37.61,2.36c3.2,5.75,3.61,19.54,3.61,19.54.44,1.69-7.95,138.72-7.95,138.72L588,445.32l-6.82-129.64L544.57,449.55Z" style="fill:#ffbe9d"></path><path d="M531.67,450.28l.05-1.27,12.94.37-.11,4.21-.8,0c-3.56.09-18.11.21-20.47-.52C520.66,452.28,531.67,450.28,531.67,450.28Z" style="fill:#BA68C8"></path><g style="opacity:0.6000000000000001"><path d="M539.88,453.37a4.18,4.18,0,0,1,1.72-2.51,4.61,4.61,0,0,1,3-.79l-.1,3.35Z" style="fill:#fff"></path></g><g style="opacity:0.6000000000000001"><path d="M526.28,451.44s-3.86.92-3.4,1.52,15.17,1,21.67.63v-.27L527.38,453S527,451.49,526.28,451.44Z" style="fill:#fff"></path></g><path d="M544.74,453.32l-.22,0-.64,0-2.34,0c-2,0-4.72,0-7.74-.08s-5.75-.2-7.73-.32l-2.34-.15-.63,0c-.15,0-.22,0-.22,0h.22l.64,0,2.34.1c2,.09,4.71.2,7.73.28s5.75.1,7.73.12h3.2Z" style="fill:#263238"></path><path d="M527.37,453.19a3,3,0,0,0-1.18-1.9,1.62,1.62,0,0,1,.91.78A1.5,1.5,0,0,1,527.37,453.19Z" style="fill:#263238"></path><path d="M531.23,451.5s-.21-.19-.39-.47-.3-.52-.26-.54.21.19.39.47S531.27,451.48,531.23,451.5Z" style="fill:#263238"></path><path d="M532.29,451s-.23-.11-.45-.3-.37-.37-.34-.4a1.22,1.22,0,0,1,.45.3C532.17,450.81,532.32,451,532.29,451Z" style="fill:#263238"></path><path d="M533,449.9a1.64,1.64,0,0,1-.67.07,1.59,1.59,0,0,1-.67-.09,1.54,1.54,0,0,1,.67-.06A1.74,1.74,0,0,1,533,449.9Z" style="fill:#263238"></path><path d="M533.23,449.11a1.3,1.3,0,0,1-.75.19,1.38,1.38,0,0,1-.78-.12,4.64,4.64,0,0,1,.77,0A4.19,4.19,0,0,1,533.23,449.11Z" style="fill:#263238"></path><path d="M530.82,450.45a2.88,2.88,0,0,1-.82,0,6,6,0,0,1-.88-.2,3,3,0,0,1-.5-.21.43.43,0,0,1-.2-.25.29.29,0,0,1,.14-.3,1.58,1.58,0,0,1,1.86.46,1.31,1.31,0,0,1,.26.52c0,.14,0,.21,0,.21a2.09,2.09,0,0,0-.35-.67,1.56,1.56,0,0,0-.7-.44,1.36,1.36,0,0,0-1,0c-.13.08-.08.23.06.31a2.37,2.37,0,0,0,.46.2,6.1,6.1,0,0,0,.85.23C530.51,450.41,530.82,450.42,530.82,450.45Z" style="fill:#263238"></path><path d="M530.61,450.48a.72.72,0,0,1-.08-.54,1.22,1.22,0,0,1,.24-.56.87.87,0,0,1,.7-.37.31.31,0,0,1,.25.36.82.82,0,0,1-.15.34,2.72,2.72,0,0,1-.41.46,1.3,1.3,0,0,1-.48.3s.17-.14.4-.37a2.23,2.23,0,0,0,.36-.46c.12-.16.21-.45,0-.49a.77.77,0,0,0-.55.32,1.09,1.09,0,0,0-.25.49A2.25,2.25,0,0,0,530.61,450.48Z" style="fill:#263238"></path><path d="M544.58,450s-.37,0-1,0a4.55,4.55,0,0,0-2.1.74,3.94,3.94,0,0,0-1.35,1.68c-.21.5-.24.85-.27.84a.62.62,0,0,1,0-.24,2.93,2.93,0,0,1,.16-.64,3.69,3.69,0,0,1,1.36-1.75,4.18,4.18,0,0,1,2.19-.73,3.35,3.35,0,0,1,.7,0A.66.66,0,0,1,544.58,450Z" style="fill:#263238"></path><path d="M538.3,452.16a7.56,7.56,0,0,1-1.89.13,8.46,8.46,0,0,1-1.88-.19c0-.05.85,0,1.88,0S538.29,452.12,538.3,452.16Z" style="fill:#263238"></path><path d="M540.82,452.23s-.07.16-.16.34-.15.33-.19.33-.06-.19,0-.4S540.79,452.2,540.82,452.23Z" style="fill:#263238"></path><path d="M541.81,451.15s-.06.15-.2.27-.27.2-.3.17.06-.15.19-.27S541.78,451.12,541.81,451.15Z" style="fill:#263238"></path><path d="M543.18,450.68s-.18,0-.37.09-.33.15-.36.12.08-.19.31-.26S543.2,450.65,543.18,450.68Z" style="fill:#263238"></path><path d="M544.16,450.47s-.06.1-.17.13-.21,0-.22,0,.06-.1.17-.13S544.14,450.43,544.16,450.47Z" style="fill:#263238"></path><path d="M594.87,228.68a24.79,24.79,0,0,1,10,3.92c11.89,7.71,31.78,24,30.13,31.57C633.56,270.59,618,278.4,618,278.4L608,266.28l6.17-3.53L599,252.65Z" style="fill:#263238"></path><path d="M601.65,253.23l-.49,1.8-1.75,8.36L599,275.64c9,11.62,9.16,21.4,9.16,21.4l-45.57,5.32c0-9,3.29-20.34,3.29-20.34,2.63-4.47,2.51-17.85,2-18.34-2.84-2.82-3.53-4.89-1.26-8.5,0,0-14.13,14.84-15.58,16.17-5,4.58-9.8,3.3-12,1.31-6.24-5.57.16-12.75.16-12.75L563,232.64a11.87,11.87,0,0,1,6.18-3.77,51.34,51.34,0,0,1,5.1-.9l15.89.13a26.92,26.92,0,0,1,4.73.58,11.35,11.35,0,0,1,6.94,8.6C603.23,244.11,601.65,253.23,601.65,253.23Z" style="fill:#263238"></path><path d="M602.15,242.3a6.08,6.08,0,0,1,.1,1.32c0,.85,0,2.09-.09,3.61A94.6,94.6,0,0,1,600.59,259c-.29,1.55-.61,3.05-.94,4.44v-.05c-.14,3.54-.28,6.6-.4,8.78-.07,1-.12,1.86-.16,2.54a3.83,3.83,0,0,1-.12.92,3.54,3.54,0,0,1-.05-.92c0-.69,0-1.54,0-2.55,0-2.18.11-5.25.22-8.79v-.05c.31-1.37.62-2.87.91-4.42.87-4.54,1.45-8.69,1.72-11.71.13-1.51.2-2.73.25-3.58A7,7,0,0,1,602.15,242.3Z" style="fill:#455a64"></path><path d="M602.3,254.55a190.66,190.66,0,0,1,16.35,11.31,92.34,92.34,0,0,1-8.32-5.44A95.44,95.44,0,0,1,602.3,254.55Z" style="fill:#455a64"></path><path d="M572.84,236.69s.1.05.24.18a4.75,4.75,0,0,1,.56.62,6.91,6.91,0,0,1,1.24,2.82,9.32,9.32,0,0,1-.26,4.57,18.67,18.67,0,0,1-2.56,5,17.65,17.65,0,0,1-1.88,2.21c-.66.67-1.37,1.22-2,1.79-1.26,1.13-2.34,2.2-3.24,3.12s-1.61,1.67-2.1,2.19-.77.82-.8.79a4.92,4.92,0,0,1,.65-.92c.44-.56,1.11-1.36,2-2.32s1.93-2,3.19-3.21c.63-.59,1.32-1.15,2-1.8a17.59,17.59,0,0,0,1.82-2.16,19.15,19.15,0,0,0,2.52-4.8,9.34,9.34,0,0,0,.36-4.36A8.17,8.17,0,0,0,572.84,236.69Z" style="fill:#455a64"></path><polygon points="567.54 276.98 568.07 270.86 599.15 270.86 598.98 275.64 567.54 276.98" style="fill:#455a64"></polygon><path d="M541,258.71a19.84,19.84,0,0,0-1.73,1.8,8.27,8.27,0,0,0,.44,10.85,23.92,23.92,0,0,0,1.87,1.66s-.25,0-.64-.27a7.08,7.08,0,0,1-1.49-1.13,8.21,8.21,0,0,1-.46-11.35,6.85,6.85,0,0,1,1.39-1.25C540.78,258.78,541,258.68,541,258.71Z" style="fill:#455a64"></path><polygon points="600.58 445.67 604.11 453.87 588.33 453.68 588 445.32 600.58 445.67" style="fill:#BA68C8"></polygon><path d="M588.22,452.26a14.36,14.36,0,0,0,2.2.11c1.37,0,3.26,0,5.34,0l5.32-.11a15.4,15.4,0,0,0,2.21-.12,15.66,15.66,0,0,0-2.21-.1c-1.37,0-3.25,0-5.33,0l-5.33.1A18.74,18.74,0,0,0,588.22,452.26Z" style="fill:#263238"></path><path d="M594.79,445.49a10.85,10.85,0,0,0-.06,3.32,11.14,11.14,0,0,0,.43,3.3,10.85,10.85,0,0,0,.06-3.32A11.14,11.14,0,0,0,594.79,445.49Z" style="fill:#263238"></path><polyline points="604.08 454.04 588.32 453.51 588.22 452.01 603.29 452.14 604.09 453.86" style="fill:#fff;opacity:0.6000000000000001"></polyline><path d="M607.13,289.14c11.87,37.45-3.43,82.91.24,126.55.36,4.29,2.1,9.41-1.91,11.85a6.54,6.54,0,0,1-3.62.89c-3.2-.11-5.88-1.77-8.74-2.91a26,26,0,0,0-17.2-.67c-3.78,1.18-7.54,3.27-11.46,2.68-5.21-.79-8.58-5.94-13.37-8.12-4.49-2-9.67-1.28-14.6-1.4h-.15a11.06,11.06,0,0,1-10.22-14c7.17-26.24,30.92-111.46,41.44-127L599,275.64C601.88,279.14,605.6,284.37,607.13,289.14Z" style="fill:#BA68C8"></path><path d="M596.12,306.77a14,14,0,0,1-1.71,2.15,50.82,50.82,0,0,1-4.64,4.75,31.05,31.05,0,0,1-5.48,3.76,12.39,12.39,0,0,1-2.5,1.16c-.11-.18,3.74-2,7.63-5.32,1.94-1.68,3.53-3.39,4.72-4.6A14.16,14.16,0,0,1,596.12,306.77Z" style="fill:#263238"></path><g style="opacity:0.1"><path d="M582.24,320.9A133.89,133.89,0,0,0,577,401.06c.56,2.29,1.14,4.89-.17,6.86-1.68,2.54-5.77,2.37-8.08.37s-3.23-5.13-3.81-8.13c-4.32-22.34,3.5-44.8,11.94-65.93"></path></g></g><g id="freepik--Plant--inject-105"><path d="M133.27,431.16l.16-.36.49-1.05a27.63,27.63,0,0,0,1.44-4.18,36.94,36.94,0,0,0-.13-16.15,87.45,87.45,0,0,0-3-10.85c-1.27-3.85-2.74-7.93-4-12.35a47.84,47.84,0,0,1-1.94-14.2c.18-5,1.67-10,3.3-15s3.32-9.88,3.83-14.8a22.54,22.54,0,0,0-2.72-13.67c-2.16-4-4.88-7.4-6.92-10.93a38,38,0,0,1-4.17-10.51,39.25,39.25,0,0,1-.26-16.28,30,30,0,0,1,1.7-5.75,2.81,2.81,0,0,1-.1.38c-.09.27-.2.63-.35,1.1a43.17,43.17,0,0,0-1,4.3A39.56,39.56,0,0,0,120,307a37.72,37.72,0,0,0,4.18,10.38c2,3.49,4.77,6.89,7,10.93a22.94,22.94,0,0,1,2.8,13.94c-.51,5-2.21,9.92-3.84,14.91s-3.1,10-3.29,14.89a47.83,47.83,0,0,0,1.9,14.06c1.19,4.39,2.64,8.48,3.9,12.34a84.93,84.93,0,0,1,2.94,10.91,36.54,36.54,0,0,1,0,16.27A24.3,24.3,0,0,1,134,429.8c-.23.43-.4.77-.54,1A1.46,1.46,0,0,1,133.27,431.16Z" style="fill:#263238"></path><path d="M126.61,321.07s-4.14-13.23,3.28-21a.46.46,0,0,1,.79.23C131.07,302.5,131.57,309.16,126.61,321.07Z" style="fill:#BA68C8"></path><path d="M129.09,304.5a12.3,12.3,0,0,1-.28,2.44c-.28,1.68-.6,3.66-1,5.84s-.66,4.16-.92,5.84a14.1,14.1,0,0,1-.44,2.41,10.15,10.15,0,0,1,.07-2.46c.14-1.51.4-3.59.78-5.87s.77-4.34,1.1-5.83A10.17,10.17,0,0,1,129.09,304.5Z" style="fill:#263238"></path><path d="M131.47,352.29s2.53-13.63,12.72-17a.45.45,0,0,1,.58.57C144.1,338,141.43,344.08,131.47,352.29Z" style="fill:#BA68C8"></path><path d="M141.41,338.8a11.88,11.88,0,0,1-1.39,2l-3.56,4.72-3.55,4.72a12.49,12.49,0,0,1-1.52,1.93,10.33,10.33,0,0,1,1.22-2.14c.83-1.27,2-3,3.43-4.83s2.72-3.47,3.69-4.63A10.45,10.45,0,0,1,141.41,338.8Z" style="fill:#263238"></path><path d="M128.71,386.49s-1.53-13.78,7.23-20a.46.46,0,0,1,.73.38C136.64,369.12,135.86,375.75,128.71,386.49Z" style="fill:#BA68C8"></path><path d="M134.31,370.7a12.11,12.11,0,0,1-.74,2.34l-2,5.55c-.76,2.08-1.44,4-2,5.56a13.87,13.87,0,0,1-.89,2.28,10,10,0,0,1,.54-2.4c.42-1.46,1.08-3.45,1.88-5.62s1.59-4.11,2.19-5.5A10.49,10.49,0,0,1,134.31,370.7Z" style="fill:#263238"></path><path d="M136.39,420.9s-1-13.83,7.94-19.7a.45.45,0,0,1,.71.4C144.93,403.82,143.91,410.41,136.39,420.9Z" style="fill:#BA68C8"></path><path d="M142.55,405.31a12.47,12.47,0,0,1-.83,2.32c-.64,1.58-1.4,3.43-2.23,5.47s-1.59,3.9-2.23,5.48a12.62,12.62,0,0,1-1,2.25,10.89,10.89,0,0,1,.63-2.38c.47-1.44,1.2-3.4,2.09-5.54s1.73-4.06,2.38-5.43A10.76,10.76,0,0,1,142.55,405.31Z" style="fill:#263238"></path><path d="M120.66,309.45S108.37,303,108.12,292.3a.46.46,0,0,1,.72-.4C110.67,293.16,115.73,297.52,120.66,309.45Z" style="fill:#BA68C8"></path><path d="M110.68,296a12.21,12.21,0,0,1,1.53,1.93l3.46,4.79,3.48,4.78a12.68,12.68,0,0,1,1.4,2,9.86,9.86,0,0,1-1.69-1.79c-1-1.16-2.26-2.82-3.61-4.7s-2.52-3.61-3.34-4.89A10.87,10.87,0,0,1,110.68,296Z" style="fill:#263238"></path><path d="M133.86,337.87s-12.66-5.66-13.55-16.36a.45.45,0,0,1,.69-.43C122.9,322.23,128.21,326.26,133.86,337.87Z" style="fill:#BA68C8"></path><path d="M123.08,325a12.45,12.45,0,0,1,1.64,1.82l3.75,4.58c1.41,1.7,2.68,3.24,3.76,4.56a13.29,13.29,0,0,1,1.52,1.92,10.28,10.28,0,0,1-1.79-1.68c-1-1.1-2.43-2.68-3.89-4.48s-2.74-3.45-3.64-4.67A11,11,0,0,1,123.08,325Z" style="fill:#263238"></path><path d="M126.57,369.58s-8.69-10.81-4.61-20.74a.45.45,0,0,1,.81-.07C123.94,350.66,126.84,356.67,126.57,369.58Z" style="fill:#BA68C8"></path><path d="M122.82,353.24a12.31,12.31,0,0,1,.63,2.38c.37,1.66.79,3.62,1.26,5.78s.9,4.1,1.27,5.77a13.24,13.24,0,0,1,.48,2.41,9.49,9.49,0,0,1-.83-2.32c-.43-1.46-.94-3.49-1.43-5.76s-.87-4.32-1.11-5.81A11,11,0,0,1,122.82,353.24Z" style="fill:#263238"></path><path d="M135.18,406.89S122.62,401,121.91,390.3a.46.46,0,0,1,.7-.42C124.49,391.06,129.74,395.18,135.18,406.89Z" style="fill:#BA68C8"></path><path d="M124.62,393.87a12.72,12.72,0,0,1,1.61,1.86l3.68,4.63c1.37,1.73,2.62,3.29,3.68,4.62a14.25,14.25,0,0,1,1.49,2,10.8,10.8,0,0,1-1.77-1.72c-1-1.12-2.38-2.72-3.81-4.54s-2.68-3.49-3.56-4.73A10.88,10.88,0,0,1,124.62,393.87Z" style="fill:#263238"></path><path d="M160.2,352.36s0,.11,0,.31,0,.53,0,.89q-.06,1.24-.15,3.36c-.16,3-.39,7.08-.66,12h0v0c-.9,5-3.45,10.57-6.89,16-2.52,4-5.15,7.6-7.43,11a76.63,76.63,0,0,0-5.57,9.22,38.49,38.49,0,0,0-2.61,6.76c-.22.83-.39,1.47-.48,1.91a3.72,3.72,0,0,1-.19.67,3.25,3.25,0,0,1,.08-.69c.07-.45.2-1.1.39-1.94a35.79,35.79,0,0,1,2.48-6.87,72.45,72.45,0,0,1,5.5-9.32c2.26-3.39,4.89-7,7.39-11,3.42-5.37,6-10.85,6.89-15.79v0c.34-4.93.63-9,.84-12,.11-1.4.2-2.52.27-3.35,0-.35.07-.64.09-.88A1.16,1.16,0,0,1,160.2,352.36Z" style="fill:#263238"></path><path d="M152.72,383.9s5.32-12.8-1.37-21.19a.45.45,0,0,0-.8.15C150,365,148.86,371.59,152.72,383.9Z" style="fill:#BA68C8"></path><path d="M151.76,367.17a11.36,11.36,0,0,1,.42,2.42c.19,1.51.4,3.59.56,5.9s.25,4.41.24,5.92a10.94,10.94,0,0,1-.14,2.46,12.72,12.72,0,0,1-.22-2.44c-.12-1.7-.25-3.7-.4-5.9s-.29-4.2-.41-5.9A11.47,11.47,0,0,1,151.76,367.17Z" style="fill:#263238"></path><g style="opacity:0.30000000000000004"><path d="M152.72,383.9s5.32-12.8-1.37-21.19a.45.45,0,0,0-.8.15C150,365,148.86,371.59,152.72,383.9Z"></path></g><path d="M136.25,414.76s4.26-13.19-3.09-21a.46.46,0,0,0-.79.22C132,396.15,131.39,402.8,136.25,414.76Z" style="fill:#BA68C8"></path><path d="M133.92,398.17a10.7,10.7,0,0,1,.62,2.38c.31,1.48.69,3.54,1,5.83s.6,4.37.72,5.88a10,10,0,0,1,0,2.46,13.86,13.86,0,0,1-.41-2.42c-.25-1.68-.55-3.66-.87-5.84s-.63-4.17-.89-5.85A12.13,12.13,0,0,1,133.92,398.17Z" style="fill:#263238"></path><g style="opacity:0.30000000000000004"><path d="M136.25,414.76s4.26-13.19-3.09-21a.46.46,0,0,0-.79.22C132,396.15,131.39,402.8,136.25,414.76Z"></path></g><path d="M159.5,368.25s11.36-7.95,10.21-18.62a.46.46,0,0,0-.76-.3C167.3,350.82,162.85,355.79,159.5,368.25Z" style="fill:#BA68C8"></path><g style="opacity:0.30000000000000004"><path d="M159.5,368.25s11.36-7.95,10.21-18.62a.46.46,0,0,0-.76-.3C167.3,350.82,162.85,355.79,159.5,368.25Z"></path></g><path d="M167.66,353.61a11.32,11.32,0,0,1-.95,2.27c-.64,1.37-1.58,3.25-2.68,5.28s-2.16,3.85-3,5.13a9.58,9.58,0,0,1-1.44,2,14.73,14.73,0,0,1,1.13-2.18c.82-1.49,1.77-3.24,2.83-5.18s2-3.7,2.82-5.2A11.79,11.79,0,0,1,167.66,353.61Z" style="fill:#263238"></path><path d="M140.83,401.68s13.7-2.14,17.37-12.22a.46.46,0,0,0-.55-.61C155.51,389.47,149.32,392,140.83,401.68Z" style="fill:#BA68C8"></path><g style="opacity:0.30000000000000004"><path d="M140.83,401.68s13.7-2.14,17.37-12.22a.46.46,0,0,0-.55-.61C155.51,389.47,149.32,392,140.83,401.68Z"></path></g><path d="M154.6,392.13a11,11,0,0,1-1.85,1.63c-1.18.94-2.85,2.21-4.74,3.55s-3.63,2.5-4.92,3.3a9.79,9.79,0,0,1-2.18,1.15,12.3,12.3,0,0,1,2-1.46l4.82-3.41,4.82-3.43A12.74,12.74,0,0,1,154.6,392.13Z" style="fill:#263238"></path><polygon points="127.76 426.9 123.76 453.8 148.67 453.8 145.44 426.9 127.76 426.9" style="fill:#455a64"></polygon><path d="M146.43,435.23a95,95,0,0,1-10,.26,95,95,0,0,1-10-.26,98.3,98.3,0,0,1,10-.26A98.3,98.3,0,0,1,146.43,435.23Z" style="fill:#263238"></path><path d="M146.93,437.37a101.61,101.61,0,0,1-10.38.26,101.33,101.33,0,0,1-10.37-.26c0-.14,4.64-.26,10.37-.26S146.93,437.23,146.93,437.37Z" style="fill:#263238"></path></g></svg>