<?xml version="1.0" standalone="no"?>
<!DOCTYPE svg PUBLIC "-//W3C//DTD SVG 20010904//EN"
 "http://www.w3.org/TR/2001/REC-SVG-20010904/DTD/svg10.dtd">
<svg version="1.0" xmlns="http://www.w3.org/2000/svg"
 width="512.000000pt" height="512.000000pt" viewBox="0 0 512.000000 512.000000"
 preserveAspectRatio="xMidYMid meet">
<metadata>
Created by potrace 1.16, written by Peter Selinger 2001-2019
</metadata>
<g transform="translate(0.000000,512.000000) scale(0.100000,-0.100000)"
fill="#000000" stroke="none">
<path d="M2300 4581 c-250 -55 -478 -206 -685 -452 -171 -204 -276 -398 -369
-684 -82 -253 -120 -452 -146 -768 -31 -370 -54 -497 -115 -623 -52 -107 -109
-177 -260 -312 -75 -68 -172 -165 -216 -215 -92 -104 -222 -295 -276 -401 -20
-39 -65 -123 -101 -186 -36 -63 -80 -148 -99 -188 -32 -72 -33 -76 -33 -215
l0 -141 71 69 c39 39 121 131 182 206 62 75 163 192 225 261 l113 125 40 -20
c39 -19 41 -19 162 -1 179 26 216 50 397 265 183 216 292 294 458 329 l87 19
-179 0 c-99 1 -176 4 -172 8 4 5 28 16 54 25 l47 18 -45 -6 c-141 -18 -311
-88 -432 -179 -90 -68 -232 -208 -330 -325 -73 -88 -126 -134 -72 -63 97 129
150 191 258 298 122 122 203 183 331 249 66 35 68 36 30 31 -64 -10 -175 -45
-230 -72 -170 -87 -350 -274 -436 -456 -32 -68 -35 -87 -16 -87 6 0 4 -5 -6
-11 -50 -29 -62 32 -22 111 38 74 170 245 260 336 93 94 169 146 355 242 144
75 242 112 297 112 22 0 50 11 77 29 129 89 337 171 541 214 11 3 2 5 -20 6
-91 2 -381 -83 -572 -168 -68 -30 -239 -111 -335 -159 -24 -11 -1 28 47 81 71
80 115 162 115 215 0 33 -6 45 -35 70 -19 17 -50 34 -68 37 l-33 7 42 81 c83
160 108 252 128 473 14 157 52 337 82 396 17 32 13 34 -22 11 -35 -23 -59 -74
-88 -189 -34 -137 -44 -198 -56 -354 -11 -141 -20 -213 -26 -207 -7 7 27 384
42 467 30 166 72 276 147 388 41 61 57 75 57 49 0 -23 110 -137 154 -159 54
-27 128 -28 181 0 53 27 95 74 135 150 74 140 175 192 395 201 l130 6 -40 22
c-22 11 -67 45 -100 74 -71 62 -126 89 -201 96 -30 3 -57 10 -61 16 -11 18
117 -2 172 -27 28 -12 75 -44 103 -69 104 -93 165 -105 298 -62 42 14 99 25
126 25 57 0 308 36 355 51 18 6 48 21 68 34 19 14 35 21 35 16 0 -15 -53 -44
-125 -68 l-70 -23 115 6 c319 16 430 32 461 70 17 21 10 24 -73 35 -76 11 -95
20 -83 38 4 8 10 7 20 -2 18 -18 188 -37 318 -36 l102 1 -45 14 c-25 8 -108
26 -184 40 -126 22 -222 52 -173 54 22 0 347 -57 402 -71 92 -23 204 -64 266
-96 68 -35 199 -136 199 -153 0 -5 -25 2 -56 16 -138 61 -279 73 -869 75 -559
1 -649 -7 -696 -65 -16 -20 -15 -20 55 -38 89 -23 180 -81 184 -119 4 -38 -62
-103 -198 -194 -63 -43 -117 -80 -120 -83 -14 -16 129 70 222 133 58 40 124
78 145 85 21 6 64 21 96 32 49 18 56 23 45 36 -19 23 -264 140 -309 147 -48 8
-61 25 -20 25 78 0 281 -98 339 -164 17 -19 32 -33 34 -32 1 2 21 6 43 9 24 4
3 -7 -55 -27 -128 -44 -151 -57 -351 -191 -310 -209 -534 -303 -810 -341 -94
-13 -134 -14 -205 -5 -124 15 -188 48 -231 121 -18 30 -33 47 -33 38 0 -9 15
-37 33 -64 43 -63 115 -103 202 -112 l65 -7 -75 -34 c-41 -18 -75 -37 -75 -42
0 -4 21 1 48 12 68 30 183 69 201 69 9 -1 -29 -18 -85 -39 -126 -48 -164 -68
-164 -85 0 -19 21 -78 37 -103 15 -22 15 -22 86 31 90 66 250 170 243 157 -4
-5 -37 -31 -74 -57 -181 -127 -222 -158 -222 -167 0 -20 46 -72 102 -113 l59
-43 86 90 c47 49 104 104 127 121 22 17 -13 -23 -79 -90 -65 -67 -117 -124
-114 -126 23 -24 189 -80 271 -91 l47 -7 48 68 c172 242 340 440 578 678 89
89 197 190 240 225 67 53 72 56 30 16 -279 -267 -457 -457 -620 -660 -97 -122
-230 -304 -224 -309 8 -5 385 -135 466 -160 45 -14 147 -39 227 -55 280 -57
481 -182 666 -416 72 -92 96 -140 139 -286 51 -173 65 -274 65 -469 0 -141 -4
-196 -22 -285 -26 -129 -88 -361 -103 -384 -9 -14 -10 -14 -5 2 3 10 15 62 25
115 72 355 43 668 -88 957 -33 73 -139 255 -172 295 -13 16 -11 9 6 -20 51
-86 133 -265 163 -356 61 -184 77 -281 76 -479 0 -264 -42 -483 -129 -673
l-34 -72 49 0 49 0 40 83 c65 137 134 363 171 562 18 99 24 311 11 425 -32
275 -171 731 -307 1002 -72 144 -164 286 -349 540 -85 118 -108 179 -103 284
5 116 52 210 162 319 119 119 172 143 344 160 208 21 660 48 720 43 28 -3 52
-2 52 1 0 3 -13 29 -29 57 -67 116 -244 236 -426 289 -49 14 -176 41 -282 59
-105 19 -196 37 -202 41 -6 3 -11 14 -11 23 -1 33 -49 155 -88 220 -98 164
-253 303 -437 392 -148 72 -230 91 -415 96 -125 3 -171 0 -240 -15z m361 -26
c326 -57 624 -277 744 -549 35 -78 31 -94 -5 -23 -122 241 -365 434 -640 509
-74 20 -107 23 -250 22 -189 -1 -253 -14 -415 -85 -98 -43 -273 -166 -367
-257 -27 -26 -48 -40 -48 -33 0 22 180 192 255 242 237 157 484 217 726 174z
m-655 -228 c-10 -7 -46 -29 -80 -51 -33 -21 -87 -58 -118 -82 -80 -60 -73 -47
10 20 70 56 180 126 197 125 6 0 2 -6 -9 -12z m644 -8 c154 -23 288 -78 453
-189 56 -37 128 -93 160 -124 33 -31 61 -56 64 -56 3 0 3 23 1 52 l-5 51 19
-24 c35 -43 78 -143 78 -180 0 -74 -66 -115 -199 -126 -157 -12 -285 31 -411
137 -81 68 -151 105 -215 114 l-40 6 38 -15 c52 -20 92 -50 118 -88 l22 -32
-39 37 c-56 53 -126 82 -200 81 -74 -1 -104 -16 -190 -93 -36 -33 -73 -60 -83
-60 -12 1 -11 3 5 13 30 17 167 147 155 147 -6 0 -38 -22 -73 -50 -102 -80
-136 -97 -248 -120 -135 -28 -176 -44 -313 -123 -61 -35 -159 -90 -217 -122
-58 -32 -138 -80 -177 -107 -40 -27 -73 -47 -73 -45 0 2 14 37 30 78 68 164
184 341 315 478 284 298 623 417 1025 360z m-910 -172 c0 -2 -10 -12 -22 -23
l-23 -19 19 23 c18 21 26 27 26 19z m811 -217 c8 0 24 -7 35 -16 18 -15 18
-15 -3 -5 -68 33 -180 -4 -214 -71 -41 -81 -13 -163 71 -205 111 -57 245 2
261 115 l6 47 2 -41 c3 -100 -122 -182 -232 -153 -120 32 -173 147 -115 250
32 57 99 94 153 83 11 -2 27 -4 36 -4z m-11 -55 c16 -20 6 -43 -24 -57 -20 -9
-30 -8 -51 6 -31 20 -32 44 -2 56 34 13 63 12 77 -5z m-15 -125 c16 -18 16
-20 1 -26 -24 -9 -46 3 -46 26 0 26 22 26 45 0z m892 -43 c-6 -15 -73 -50
-117 -62 -14 -3 4 10 40 30 36 19 67 40 69 46 1 6 5 8 8 5 3 -3 3 -12 0 -19z
m353 -157 c-227 -11 -797 -21 -784 -15 21 10 370 22 654 22 250 0 266 -1 130
-7z m233 -7 c-13 -2 -35 -2 -50 0 -16 2 -5 4 22 4 28 0 40 -2 28 -4z m80 -10
c-7 -2 -21 -2 -30 0 -10 3 -4 5 12 5 17 0 24 -2 18 -5z m60 -10 c-7 -2 -19 -2
-25 0 -7 3 -2 5 12 5 14 0 19 -2 13 -5z m44 -9 c-3 -3 -12 -4 -19 -1 -8 3 -5
6 6 6 11 1 17 -2 13 -5z m174 -31 c13 -16 12 -17 -3 -4 -10 7 -18 15 -18 17 0
8 8 3 21 -13z m40 -40 c13 -16 12 -17 -3 -4 -17 13 -22 21 -14 21 2 0 10 -8
17 -17z m-1626 -499 c-95 -89 -175 -158 -175 -150 0 7 243 226 250 225 3 0
-31 -34 -75 -75z m-409 -62 c-7 -12 -166 -134 -166 -127 0 5 161 135 168 135
2 0 1 -3 -2 -8z m552 -474 c11 -37 48 -125 81 -195 34 -71 61 -133 61 -138 -1
-20 -129 253 -150 320 -18 54 -23 98 -25 195 l-3 125 8 -120 c5 -68 17 -149
28 -187z m307 50 c95 -107 199 -236 235 -291 l21 -32 -28 34 c-15 19 -59 74
-98 122 -38 47 -105 126 -149 175 -72 82 -136 175 -136 199 0 6 15 -16 33 -48
17 -31 73 -103 122 -159z m-2028 -70 c-3 -8 -6 -5 -6 6 -1 11 2 17 5 13 3 -3
4 -12 1 -19z m-527 -915 c-113 -100 -244 -237 -307 -322 -72 -98 -80 -105 -54
-54 26 51 92 136 175 222 60 62 244 221 255 221 3 0 -28 -30 -69 -67z m-506
-664 c-53 -79 -101 -148 -107 -154 -33 -32 133 235 176 282 45 51 23 8 -69
-128z"/>
<path d="M2258 4204 c-48 -7 -129 -27 -179 -44 -251 -84 -405 -206 -579 -460
-61 -90 -73 -113 -44 -89 9 7 21 14 28 15 6 1 49 27 94 57 119 82 234 134 365
166 134 33 176 52 272 121 98 71 151 89 343 116 18 3 30 9 27 14 -3 5 7 11 22
13 25 3 24 4 -7 6 -42 2 -65 14 -56 30 5 7 -7 11 -36 12 -35 1 -30 3 27 11 84
11 195 4 277 -18 33 -8 62 -13 65 -11 8 9 -160 48 -265 62 -130 18 -239 17
-354 -1z"/>
<path d="M1533 3025 c0 -22 2 -30 4 -17 2 12 2 30 0 40 -3 9 -5 -1 -4 -23z"/>
<path d="M1420 2908 c-6 -18 -17 -117 -25 -220 -15 -200 -31 -291 -64 -377
-29 -78 -19 -74 17 7 45 102 70 183 81 269 13 96 20 353 10 353 -4 0 -12 -15
-19 -32z"/>
<path d="M1656 2523 c-36 -46 -113 -171 -94 -153 13 12 141 186 145 197 11 27
-8 11 -51 -44z"/>
<path d="M2499 2143 c-57 -91 -75 -216 -45 -316 19 -64 95 -187 268 -434 81
-117 148 -219 148 -225 0 -7 -18 -44 -39 -81 l-38 -69 -75 114 c-86 129 -142
203 -315 417 -67 83 -132 170 -144 193 -23 44 -30 121 -17 168 4 14 -1 7 -12
-15 -42 -85 -17 -175 81 -295 217 -267 320 -400 389 -503 l78 -119 -50 -70
c-28 -38 -91 -116 -141 -171 l-90 -102 82 80 c45 44 109 115 141 158 33 43 62
78 65 78 4 0 28 -33 53 -73 68 -107 134 -199 140 -194 2 3 -37 76 -87 164
l-90 158 41 80 c23 43 44 81 47 84 3 3 7 14 9 25 2 15 0 16 -6 7 -12 -17 -7
-24 -206 291 -170 268 -201 328 -212 406 -8 65 10 162 45 234 33 69 22 75 -20
10z"/>
<path d="M2088 2133 c12 -2 32 -2 45 0 12 2 2 4 -23 4 -25 0 -35 -2 -22 -4z"/>
<path d="M2631 2080 c0 -30 4 -75 9 -100 13 -55 162 -471 168 -466 2 2 -17 69
-42 149 -50 157 -56 184 -27 122 15 -33 84 -134 194 -285 l18 -25 -12 25 c-14
29 -55 96 -168 274 -84 133 -116 207 -130 305 l-9 56 -1 -55z"/>
<path d="M3095 2005 c4 -11 18 -49 32 -85 37 -96 132 -510 163 -705 l20 -130
-6 100 c-6 105 -23 210 -54 335 -11 41 -28 128 -40 193 -22 128 -51 212 -95
273 -15 22 -24 30 -20 19z"/>
<path d="M3324 1777 c126 -179 186 -319 247 -577 22 -94 24 -71 4 46 -36 208
-139 428 -264 564 -39 42 -38 40 13 -33z"/>
<path d="M1754 1611 c-177 -48 -271 -125 -322 -263 -60 -160 -256 -477 -376
-605 -93 -101 -269 -176 -397 -172 -52 2 -60 -1 -99 -34 -73 -62 -253 -106
-322 -78 -26 10 -28 14 -28 73 l0 63 -27 -35 c-15 -19 -62 -71 -105 -116 l-78
-80 0 -92 c0 -51 3 -92 6 -92 3 0 65 54 137 121 127 116 174 153 166 131 -4
-9 -76 -78 -257 -245 l-52 -48 0 -69 0 -70 58 0 57 0 180 168 c99 93 216 212
259 265 43 54 81 97 83 97 8 0 -21 -47 -68 -110 -46 -63 -229 -248 -358 -363
l-64 -57 140 0 140 0 44 41 c135 125 201 182 191 163 -6 -12 -56 -62 -110
-110 -59 -53 -94 -90 -85 -92 8 -2 46 27 86 65 40 37 122 110 182 162 61 52
120 104 133 115 17 15 22 17 17 4 -5 -12 -259 -246 -360 -330 -19 -17 -14 -17
117 -18 l136 0 200 195 c111 107 203 195 206 195 17 0 -10 -30 -181 -202
l-187 -188 62 0 62 0 78 83 c44 45 132 140 196 212 63 71 124 133 133 139 16
9 17 8 3 -10 -51 -68 -198 -234 -344 -391 l-30 -33 95 1 94 0 77 92 c42 51
120 149 173 219 92 123 119 153 94 106 -21 -41 -162 -231 -241 -326 l-78 -92
84 0 84 0 70 88 c71 90 141 191 206 299 52 87 68 92 22 7 -48 -89 -151 -241
-216 -322 -27 -34 -50 -64 -50 -67 0 -3 25 -5 55 -5 l55 0 64 87 c36 48 99
153 140 234 42 80 83 153 92 160 9 8 0 -19 -20 -60 -21 -40 -35 -78 -33 -84 2
-7 60 44 129 113 131 132 196 222 248 347 48 116 43 122 -12 18 -75 -139 -129
-217 -215 -305 -62 -62 -71 -69 -57 -40 9 19 41 64 69 100 197 245 335 589
310 774 -14 109 -92 214 -193 259 -67 29 -177 32 -268 8z m395 -423 c-38 -71
-171 -179 -218 -177 l-26 1 27 8 c43 13 111 65 169 129 60 67 65 70 48 39z
m-384 -140 c-7 -45 13 -81 55 -95 22 -7 28 -12 15 -12 -25 -1 -85 35 -85 50 0
7 -13 -6 -29 -28 -55 -76 -148 -133 -218 -133 -32 0 -83 27 -83 44 0 19 30 89
36 84 2 -3 -3 -21 -11 -41 -14 -34 -14 -37 7 -51 32 -23 75 -20 136 9 69 32
157 123 166 170 4 19 9 35 12 35 3 0 2 -15 -1 -32z m246 -81 c-13 -13 -15 1
-4 30 7 17 8 17 11 -1 2 -10 -1 -23 -7 -29z m-80 -72 c-11 -32 -39 -90 -62
-129 -106 -178 -208 -277 -286 -275 -23 0 -20 3 18 15 25 7 67 32 92 55 59 51
172 219 217 321 39 90 50 97 21 13z m-186 -42 c-49 -90 -164 -249 -210 -293
-32 -29 -28 -22 22 45 68 91 146 207 188 278 42 73 43 47 0 -30z m-156 -126
c-40 -96 -109 -183 -179 -224 -50 -31 -115 -51 -126 -41 -2 3 14 33 37 67 22
34 62 98 88 144 45 77 50 82 87 88 46 6 72 19 99 49 32 36 30 2 -6 -83z m-244
-16 c-103 -211 -189 -318 -275 -341 -23 -6 -44 -9 -46 -7 -3 3 14 19 38 38 24
18 47 36 53 41 5 5 -17 -1 -49 -12 -78 -26 -85 -25 -54 8 41 43 99 139 153
254 47 100 51 106 75 100 41 -11 108 -6 132 11 13 9 24 16 24 16 1 1 -22 -48
-51 -108z m-355 -108 c-77 -138 -236 -310 -306 -333 -19 -7 -37 -10 -39 -8 -2
2 17 37 42 78 25 41 63 109 84 150 36 70 42 77 82 88 23 7 70 28 102 47 33 18
62 34 63 34 2 1 -11 -25 -28 -56z"/>
<path d="M3315 1425 c110 -345 135 -663 75 -961 -21 -108 -82 -294 -130 -400
-16 -35 -24 -64 -19 -64 31 0 135 303 180 520 56 272 42 497 -47 766 -20 60
-43 120 -51 134 -9 17 -12 18 -8 5z"/>
<path d="M2526 983 c-26 -55 -136 -218 -211 -313 l-66 -85 55 57 c79 83 259
358 243 374 -2 2 -11 -13 -21 -33z"/>
<path d="M3321 745 c-2 -206 -36 -381 -115 -594 -24 -64 -46 -125 -50 -136 -8
-20 -7 -20 8 -1 9 11 31 60 50 110 96 251 136 479 117 661 l-8 80 -2 -120z"/>
<path d="M2862 593 c-16 -27 -65 -109 -107 -183 -43 -74 -117 -193 -164 -265
-100 -151 -97 -145 -79 -145 21 1 179 249 283 445 32 61 69 129 82 153 32 57
22 54 -15 -5z"/>
<path d="M2190 540 c-25 -46 -255 -323 -356 -429 -58 -61 -100 -111 -92 -111
21 0 208 195 304 315 89 113 169 233 161 241 -3 3 -11 -4 -17 -16z"/>
<path d="M2576 470 c-21 -33 -80 -117 -132 -186 -52 -70 -94 -128 -92 -130 10
-10 178 218 242 329 40 68 26 58 -18 -13z"/>
<path d="M3653 475 c0 -22 2 -30 4 -17 2 12 2 30 0 40 -3 9 -5 -1 -4 -23z"/>
<path d="M2961 325 c-48 -90 -133 -235 -175 -297 -11 -17 -14 -28 -7 -28 18 0
91 120 170 278 39 78 69 142 67 142 -2 0 -27 -43 -55 -95z"/>
<path d="M3642 385 c0 -16 2 -22 5 -12 2 9 2 23 0 30 -3 6 -5 -1 -5 -18z"/>
<path d="M2239 353 c-13 -16 -12 -17 4 -4 16 13 21 21 13 21 -2 0 -10 -8 -17
-17z"/>
<path d="M3631 324 c0 -11 3 -14 6 -6 3 7 2 16 -1 19 -3 4 -6 -2 -5 -13z"/>
<path d="M2146 233 c-52 -66 -62 -81 -29 -47 45 47 119 144 110 144 -2 0 -38
-44 -81 -97z"/>
<path d="M3621 274 c0 -11 3 -14 6 -6 3 7 2 16 -1 19 -3 4 -6 -2 -5 -13z"/>
<path d="M3611 234 c0 -11 3 -14 6 -6 3 7 2 16 -1 19 -3 4 -6 -2 -5 -13z"/>
<path d="M3601 194 c0 -11 3 -14 6 -6 3 7 2 16 -1 19 -3 4 -6 -2 -5 -13z"/>
</g>
</svg>