<svg xmlns="http://www.w3.org/2000/svg" viewBox="0 0 500 500"><g id="freepik--Floor--inject-162"><ellipse id="freepik--floor--inject-162" cx="250" cy="351.51" rx="227.89" ry="131.57" style="fill:#fafafa"></ellipse></g><g id="freepik--Pictures--inject-162"><g id="freepik--Picture--inject-162"><g id="freepik--Frame--inject-162"><polygon points="290.85 91.03 292.55 92.05 327.51 71.86 325.8 70.85 290.85 91.03" style="fill:#fafafa"></polygon><polygon points="325.8 70.85 292.55 90.04 292.55 55.22 325.81 36.04 325.8 70.85" style="fill:#fff"></polygon><path d="M330.72,29.47,289.34,53.36V97.61l41.38-23.89Zm-3.21,42.39-35,20.19V55.22l35-20.18Z" style="fill:#f0f0f0"></path><polygon points="327.51 71.86 325.8 70.85 325.81 36.04 327.51 35.04 327.51 71.86" style="fill:#e0e0e0"></polygon><polygon points="330.72 29.47 328.99 28.48 287.61 52.38 289.34 53.37 330.72 29.47" style="fill:#fafafa"></polygon><polygon points="287.61 52.38 289.34 53.37 289.34 97.61 287.61 96.62 287.61 52.38" style="fill:#e0e0e0"></polygon></g><g id="freepik--Land--inject-162"><polygon points="324.51 69.81 293.85 87.51 293.85 78.66 301.51 60.96 306.29 65.38 304.57 72.8 315.16 50.16 324.51 60.96 324.51 69.81" style="fill:#f0f0f0"></polygon><path d="M306,52.41a5,5,0,0,0-2.27,3.93c0,1.44,1,2,2.27,1.31a5,5,0,0,0,2.27-3.93C308.27,52.27,307.25,51.69,306,52.41Z" style="fill:#f0f0f0"></path></g></g><g id="freepik--picture--inject-162"><g id="freepik--frame--inject-162"><polygon points="290.85 145.42 292.55 146.44 327.51 126.25 325.8 125.24 290.85 145.42" style="fill:#fafafa"></polygon><polygon points="325.8 125.24 292.55 144.43 292.55 109.61 325.81 90.43 325.8 125.24" style="fill:#fff"></polygon><path d="M330.72,83.86l-41.38,23.89V152l41.38-23.89Zm-3.21,42.39-35,20.18V109.61l35-20.18Z" style="fill:#f0f0f0"></path><polygon points="327.51 126.25 325.8 125.24 325.81 90.43 327.51 89.43 327.51 126.25" style="fill:#e0e0e0"></polygon><polygon points="330.72 83.86 328.99 82.87 287.61 106.76 289.34 107.75 330.72 83.86" style="fill:#fafafa"></polygon><polygon points="287.61 106.76 289.34 107.75 289.34 152 287.61 151.01 287.61 106.76" style="fill:#e0e0e0"></polygon></g><g id="freepik--land--inject-162"><polygon points="324.51 124.2 293.85 141.9 293.85 133.05 301.51 115.35 306.29 119.77 304.57 127.19 315.16 104.55 324.51 115.35 324.51 124.2" style="fill:#f0f0f0"></polygon><path d="M306,106.8a5,5,0,0,0-2.27,3.93c0,1.44,1,2,2.27,1.31a5,5,0,0,0,2.27-3.93C308.27,106.66,307.25,106.08,306,106.8Z" style="fill:#f0f0f0"></path></g></g></g><g id="freepik--Plant--inject-162"><g id="freepik--Plants--inject-162"><path d="M291.46,359.53s-5-21.66,6-42.8c6.15-11.81,17.84-18.22,23.86-18.64,6.75-.46,13.26,5.64,6.82,13.38-6.13,7.36-17.25,10.19-24.87,29.54-5,12.76-4.95,22.31-4.95,22.31Z" style="fill:#BA68C8"></path><path d="M291.46,359.53s-5-21.66,6-42.8c6.15-11.81,17.84-18.22,23.86-18.64,6.75-.46,13.26,5.64,6.82,13.38-6.13,7.36-17.25,10.19-24.87,29.54-5,12.76-4.95,22.31-4.95,22.31Z" style="fill:#fff;opacity:0.5"></path><path d="M295.85,354.1a.38.38,0,0,0,.4-.36c-1.42-23.86,14.17-43.51,25.69-49.85a.29.29,0,0,0,.12-.46.48.48,0,0,0-.58-.09c-11.69,6.43-27.51,26.33-26.07,50.45A.37.37,0,0,0,295.85,354.1Z" style="fill:#fff"></path><path d="M298.29,363.32c1.34-5.46,5.53-12.06,14-17.87s20-11,18.73-16.38-10.17-5.47-16.57-2.7-21.22,15.51-19.75,35Z" style="fill:#BA68C8"></path><path d="M298.29,363.32c1.34-5.46,5.53-12.06,14-17.87s20-11,18.73-16.38-10.17-5.47-16.57-2.7-21.22,15.51-19.75,35Z" style="fill:#fff;opacity:0.65"></path><path d="M297,356.11a.42.42,0,0,0,.4-.3c1.93-11.55,19.59-25.69,27.45-27.74a.33.33,0,0,0,.28-.42.42.42,0,0,0-.52-.21c-8.24,2.15-26,16.29-28,28.3,0,.18.14.35.37.37Z" style="fill:#fff"></path></g></g><g id="freepik--Folder--inject-162"><g id="freepik--folder--inject-162"><path d="M37.58,428.63a3.11,3.11,0,0,1,1.7-2.5l168.94-106.2V164.51l20.95-25.92a31.18,31.18,0,0,0,6-16.82V34.19c0-5.23-3.6-7.23-8-4.47L39.28,146.46a3.11,3.11,0,0,0-1.7,2.5Z" style="fill:#BA68C8"></path><path d="M223.57,57.54c0-5.23-3.71-7.41-8.28-4.88l-172,95.19a9.15,9.15,0,0,1-5.62.84,2.51,2.51,0,0,0,0,.27v279.4h0a3.23,3.23,0,0,1,1.66-2.23l168.94-106.2V164.51l15.35-19Z" style="opacity:0.30000000000000004"></path><path d="M39.12,430.86a9,9,0,0,0,8-.07l172-95.19c4.58-2.53,8.28-8.82,8.28-14V60.81c0-5.22-3.7-7.41-8.28-4.88l-172,95.19a9,9,0,0,1-8,.08A2.67,2.67,0,0,1,37.58,149V428.63A2.65,2.65,0,0,0,39.12,430.86Z" style="fill:#BA68C8"></path><path d="M39.12,430.86a9,9,0,0,0,8-.07l172-95.19c4.58-2.53,8.28-8.82,8.28-14V60.81c0-5.22-3.7-7.41-8.28-4.88l-172,95.19a9,9,0,0,1-8,.08A2.67,2.67,0,0,1,37.58,149V428.63A2.65,2.65,0,0,0,39.12,430.86Z" style="fill:#fff;opacity:0.30000000000000004"></path><path d="M43,152.09a7.88,7.88,0,0,1-3.85-.89A2.67,2.67,0,0,1,37.58,149V428.63a2.65,2.65,0,0,0,1.54,2.23,7.88,7.88,0,0,0,3.85.9Z" style="fill:#fff;opacity:0.30000000000000004"></path><path d="M66,148.9a.47.47,0,0,0-.47.48V411.19a.48.48,0,0,0,1,0V149.38A.47.47,0,0,0,66,148.9Zm-15.37,8.88a.47.47,0,0,0-.47.47V420.07a.47.47,0,1,0,.94,0V158.25A.47.47,0,0,0,50.65,157.78Zm7.69-4.44a.48.48,0,0,0-.48.47V415.63a.48.48,0,0,0,.48.47.47.47,0,0,0,.47-.47V153.81A.47.47,0,0,0,58.34,153.34Z" style="fill:#BA68C8"></path></g></g><g id="freepik--Contract--inject-162"><g id="freepik--Sheet--inject-162"><polygon points="81.94 163.94 77.99 161.66 255.52 59.16 259.48 61.44 81.94 163.94" style="fill:#f0f0f0"></polygon><polygon points="259.48 61.44 259.48 334.1 81.87 436.64 81.94 163.94 259.48 61.44" style="fill:#fafafa"></polygon><path d="M258.53,63.07V333.56L82.82,435l.07-270.52L258.53,63.07m1-1.63L81.94,163.94l-.07,272.7L259.48,334.1V61.44Z" style="fill:#ebebeb"></path><polygon points="81.94 163.94 81.87 436.64 78.03 434.42 77.99 161.66 81.87 163.89 81.94 163.94" style="fill:#e0e0e0"></polygon></g><g id="freepik--contract--inject-162"><g id="freepik--sheet--inject-162"><path d="M309.18,358.42V363L131.64,465.48l-2-1.13A79.15,79.15,0,0,1,90.2,396V184.43L267.73,81.93l4,2.28V293.49A75,75,0,0,0,309.18,358.42Z" style="fill:#f0f0f0"></path><path d="M271.69,293.49V84.21L94.16,186.71V396a75,75,0,0,0,37.48,64.93l177.54-102.5A75,75,0,0,1,271.69,293.49ZM95,396V187.21L270.81,85.72V293.49a76.06,76.06,0,0,0,36.64,64.92L131.64,459.91A74.32,74.32,0,0,1,95,396Z" style="fill:#e0e0e0"></path><path d="M307.45,358.41,131.64,459.91A74.32,74.32,0,0,1,95,396V187.21L270.81,85.72V293.49A76.06,76.06,0,0,0,307.45,358.41Z" style="fill:#fafafa"></path><path d="M94.15,396V186.71l-4-2.28V396a79.15,79.15,0,0,0,39.46,68.36l2,1.13v-4.56A75,75,0,0,1,94.15,396Z" style="fill:#e0e0e0"></path><polygon points="131.64 460.92 131.64 465.48 309.19 362.99 309.19 358.42 131.64 460.92" style="opacity:0.15"></polygon></g><g id="freepik--Text--inject-162"><path d="M216.37,139.47,258.74,115c1-.6,1.89-.17,1.89,1a4.06,4.06,0,0,1-1.89,3.14l-42.37,24.47c-1.05.6-1.9.17-1.9-1A4,4,0,0,1,216.37,139.47Z" style="fill:#e0e0e0"></path><path d="M216.37,155.87l42.37-24.47c1-.6,1.89-.17,1.89,1a4.06,4.06,0,0,1-1.89,3.14L216.37,160c-1.05.6-1.9.17-1.9-1A4,4,0,0,1,216.37,155.87Z" style="fill:#e0e0e0"></path><path d="M232.23,138.51l26.51-15.31c1-.6,1.89-.17,1.89,1a4.06,4.06,0,0,1-1.89,3.14l-26.51,15.31c-1,.6-1.9.17-1.9-1A4,4,0,0,1,232.23,138.51Z" style="fill:#e0e0e0"></path></g><g id="freepik--text--inject-162"><path d="M115.05,246.45,253.53,166.5c1.05-.6,1.89-.17,1.89,1a4,4,0,0,1-1.89,3.14l-138.48,80c-1,.61-1.89.18-1.89-1A4.08,4.08,0,0,1,115.05,246.45Z" style="fill:#e0e0e0"></path><path d="M115.05,254.65l138.48-80c1.05-.6,1.89-.17,1.89,1a4,4,0,0,1-1.89,3.14L115.05,258.75c-1,.61-1.89.18-1.89-1A4.08,4.08,0,0,1,115.05,254.65Z" style="fill:#e0e0e0"></path><path d="M115.05,262.85l138.48-80c1.05-.6,1.89-.17,1.89,1a4,4,0,0,1-1.89,3.14L115.05,267c-1,.61-1.89.18-1.89-1A4.08,4.08,0,0,1,115.05,262.85Z" style="fill:#e0e0e0"></path><path d="M115.05,271.05l138.48-80c1.05-.6,1.89-.17,1.89,1a4,4,0,0,1-1.89,3.14L115.05,275.15c-1,.61-1.89.18-1.89-1A4.06,4.06,0,0,1,115.05,271.05Z" style="fill:#e0e0e0"></path></g><g id="freepik--text--inject-162"><path d="M115.05,287.61l138.48-80c1.05-.61,1.89-.18,1.89,1a4.05,4.05,0,0,1-1.89,3.15L115.05,291.71c-1,.6-1.89.17-1.89-1A4.06,4.06,0,0,1,115.05,287.61Z" style="fill:#e0e0e0"></path><path d="M115.05,295.81l138.48-79.95c1.05-.61,1.89-.18,1.89.95a4.05,4.05,0,0,1-1.89,3.15l-138.48,80c-1,.6-1.89.17-1.89-1A4.06,4.06,0,0,1,115.05,295.81Z" style="fill:#e0e0e0"></path><path d="M115.05,304l138.48-79.94c1.05-.61,1.89-.18,1.89.95a4.05,4.05,0,0,1-1.89,3.15L115.05,308.1c-1,.61-1.89.18-1.89-1A4.1,4.1,0,0,1,115.05,304Z" style="fill:#e0e0e0"></path><path d="M115.05,312.2l138.48-79.94c1.05-.61,1.89-.18,1.89,1a4.05,4.05,0,0,1-1.89,3.15L115.05,316.3c-1,.61-1.89.18-1.89-.95A4.1,4.1,0,0,1,115.05,312.2Z" style="fill:#e0e0e0"></path></g><path d="M115.05,328.76l138.48-79.95c1.05-.6,1.89-.18,1.89,1a4,4,0,0,1-1.89,3.14l-138.48,80c-1,.6-1.89.17-1.89-1A4.06,4.06,0,0,1,115.05,328.76Z" style="fill:#e0e0e0"></path><path d="M115.05,337,253.53,257c1.05-.6,1.89-.18,1.89,1a4,4,0,0,1-1.89,3.14L115.05,341.06c-1,.6-1.89.17-1.89-1A4.06,4.06,0,0,1,115.05,337Z" style="fill:#e0e0e0"></path><path d="M115.05,345.16l74.22-42.88c1-.6,1.89-.17,1.89,1a4.06,4.06,0,0,1-1.89,3.14l-74.22,42.88c-1,.6-1.89.17-1.89-1A4.06,4.06,0,0,1,115.05,345.16Z" style="fill:#e0e0e0"></path><path d="M115.05,359.73l49.31-28.51c1-.6,1.89-.18,1.89,1a4,4,0,0,1-1.89,3.14l-49.31,28.51c-1,.6-1.89.17-1.89-1A4.06,4.06,0,0,1,115.05,359.73Z" style="fill:#BA68C8"></path><path d="M124,218.22a1.27,1.27,0,0,1,.16-.55.78.78,0,0,1,.28-.31l1.23-.72a.25.25,0,0,1,.3,0,.47.47,0,0,1,.11.39,11,11,0,0,1-.31,2.1,10.66,10.66,0,0,1-.81,2.2,10.21,10.21,0,0,1-1.39,2.06,7.48,7.48,0,0,1-2,1.66,3.7,3.7,0,0,1-1.85.59,2,2,0,0,1-1.37-.54,3.4,3.4,0,0,1-.87-1.55,9.34,9.34,0,0,1-.38-2.38q0-.87,0-2t0-2a15.33,15.33,0,0,1,.38-2.81,11.52,11.52,0,0,1,.87-2.56,9.51,9.51,0,0,1,1.37-2.12,7,7,0,0,1,1.85-1.55,4.21,4.21,0,0,1,2-.68A2.2,2.2,0,0,1,125,208a2.74,2.74,0,0,1,.81,1.27,6.61,6.61,0,0,1,.31,1.73,1,1,0,0,1-.11.52.82.82,0,0,1-.3.35l-1.23.71a.28.28,0,0,1-.29,0,.41.41,0,0,1-.16-.36,2.61,2.61,0,0,0-.22-.79,1.27,1.27,0,0,0-.45-.54,1.22,1.22,0,0,0-.73-.15,2.51,2.51,0,0,0-1,.38,3.73,3.73,0,0,0-1,.87,5.33,5.33,0,0,0-.74,1.18,6,6,0,0,0-.45,1.39,8.33,8.33,0,0,0-.19,1.48c0,.61,0,1.27,0,2s0,1.37,0,1.95a5.23,5.23,0,0,0,.19,1.28,1.86,1.86,0,0,0,.45.85,1.1,1.1,0,0,0,.74.32,1.93,1.93,0,0,0,1-.31,4.71,4.71,0,0,0,1-.82,5.21,5.21,0,0,0,.73-1,5.28,5.28,0,0,0,.47-1.07A5.1,5.1,0,0,0,124,218.22Z" style="fill:#BA68C8"></path><path d="M127.49,211.12a16,16,0,0,1,.32-2.66,11.94,11.94,0,0,1,.83-2.49,9.75,9.75,0,0,1,1.37-2.14,7.12,7.12,0,0,1,2-1.63,3.72,3.72,0,0,1,1.93-.62,1.91,1.91,0,0,1,1.36.56,3.51,3.51,0,0,1,.84,1.53,9.48,9.48,0,0,1,.33,2.29c0,.29,0,.61,0,1s0,.73,0,1.11,0,.75,0,1.11,0,.7,0,1a15,15,0,0,1-.32,2.66,11.94,11.94,0,0,1-.83,2.49,9.11,9.11,0,0,1-1.38,2.14,7.3,7.3,0,0,1-1.93,1.61,3.93,3.93,0,0,1-2,.63,2,2,0,0,1-1.37-.55,3.53,3.53,0,0,1-.83-1.54,10,10,0,0,1-.32-2.28c0-.29,0-.61,0-1v-2.22C127.47,211.76,127.48,211.42,127.49,211.12Zm6.88-3.86a3,3,0,0,0-.7-2.2c-.44-.37-1-.35-1.71.06a4.37,4.37,0,0,0-1.71,1.92,7.25,7.25,0,0,0-.71,3c0,.61,0,1.27,0,2s0,1.38,0,2a3,3,0,0,0,.71,2.19c.43.36,1,.33,1.71-.08a4.43,4.43,0,0,0,1.71-1.9,7.13,7.13,0,0,0,.7-3c0-.61,0-1.27,0-2S134.39,207.84,134.37,207.26Z" style="fill:#BA68C8"></path><path d="M145.33,211.09c-.17.1-.3.11-.39,0l-.2-.21-4.26-7.28v9.64a1.27,1.27,0,0,1-.12.52.75.75,0,0,1-.29.35l-1.23.71a.22.22,0,0,1-.29,0,.51.51,0,0,1-.12-.38V199.33a1.23,1.23,0,0,1,.12-.52.75.75,0,0,1,.29-.35l1.07-.62c.17-.1.3-.1.39,0l.2.22,4.25,7.28v-9.64a1.21,1.21,0,0,1,.13-.52.69.69,0,0,1,.29-.35l1.23-.71a.2.2,0,0,1,.28,0,.45.45,0,0,1,.13.37v15.12a1.07,1.07,0,0,1-.13.51.77.77,0,0,1-.28.36Z" style="fill:#BA68C8"></path><path d="M156.26,188.4a.22.22,0,0,1,.29,0,.5.5,0,0,1,.12.37v1.67a1.19,1.19,0,0,1-.12.51.84.84,0,0,1-.29.36l-2.73,1.58v12.82a1.14,1.14,0,0,1-.13.52.74.74,0,0,1-.29.35l-1.23.71a.21.21,0,0,1-.28,0,.47.47,0,0,1-.13-.38V194.09l-2.73,1.58a.22.22,0,0,1-.29,0,.51.51,0,0,1-.12-.38v-1.66a1.19,1.19,0,0,1,.12-.51.84.84,0,0,1,.29-.36Z" style="fill:#BA68C8"></path><path d="M162.52,184.78c1.27-.73,2.23-.83,2.89-.31s1,1.6,1,3.2a9.91,9.91,0,0,1-.51,3.21,8,8,0,0,1-1.5,2.65l2.1,4.57a.68.68,0,0,1,0,.23,1,1,0,0,1-.1.42.65.65,0,0,1-.24.29l-1.29.75q-.3.18-.45,0a.8.8,0,0,1-.2-.29l-2-4.3-2,1.17v5.45a1.27,1.27,0,0,1-.12.52.75.75,0,0,1-.29.35l-1.23.71a.21.21,0,0,1-.29,0,.5.5,0,0,1-.12-.37V187.92a1.23,1.23,0,0,1,.12-.52.75.75,0,0,1,.29-.35Zm-2.28,8.69,2.21-1.27a3.93,3.93,0,0,0,1.38-1.27,3.61,3.61,0,0,0,.52-2.07c0-.88-.17-1.36-.52-1.46a1.9,1.9,0,0,0-1.38.35L160.24,189Z" style="fill:#BA68C8"></path><path d="M173.38,178.52c.16-.1.28-.1.36,0a1.21,1.21,0,0,1,.22.47l3.72,12.64a.63.63,0,0,1,0,.16,1.2,1.2,0,0,1-.13.51.77.77,0,0,1-.29.36l-1.09.63c-.2.11-.35.13-.43,0a.64.64,0,0,1-.16-.29l-.66-2.22-4.8,2.78-.65,3a2.33,2.33,0,0,1-.17.48,1,1,0,0,1-.43.45l-1.09.63a.21.21,0,0,1-.29,0,.5.5,0,0,1-.12-.37,1,1,0,0,1,0-.18l3.73-16.94a3.52,3.52,0,0,1,.21-.72.87.87,0,0,1,.37-.41Zm.83,9.79-1.67-5.71-1.67,7.64Z" style="fill:#BA68C8"></path><path d="M185.4,182.76a1.54,1.54,0,0,1,.16-.55.86.86,0,0,1,.28-.31l1.23-.71a.25.25,0,0,1,.3,0,.47.47,0,0,1,.12.39,11.91,11.91,0,0,1-.32,2.1,9.74,9.74,0,0,1-.81,2.2A10.66,10.66,0,0,1,185,188a7.88,7.88,0,0,1-2,1.66,3.7,3.7,0,0,1-1.85.59,2,2,0,0,1-1.37-.55,3.49,3.49,0,0,1-.87-1.54,9.51,9.51,0,0,1-.37-2.38c0-.59,0-1.23,0-1.95s0-1.38,0-2a15.44,15.44,0,0,1,.37-2.81,12.76,12.76,0,0,1,.87-2.55,10,10,0,0,1,1.37-2.13,7.17,7.17,0,0,1,1.85-1.54,4.1,4.1,0,0,1,2-.68,2.18,2.18,0,0,1,1.38.46,2.7,2.7,0,0,1,.81,1.28,6.89,6.89,0,0,1,.32,1.73,1.07,1.07,0,0,1-.12.52.78.78,0,0,1-.3.34l-1.23.72a.3.3,0,0,1-.29,0c-.09,0-.14-.17-.16-.36a2.2,2.2,0,0,0-.22-.79,1.24,1.24,0,0,0-.45-.53,1.09,1.09,0,0,0-.73-.15,2.47,2.47,0,0,0-1,.37,3.92,3.92,0,0,0-1,.88,5.65,5.65,0,0,0-.74,1.17,6.66,6.66,0,0,0-.45,1.39,8.44,8.44,0,0,0-.19,1.49c0,.6,0,1.27,0,2s0,1.37,0,1.95a5.16,5.16,0,0,0,.19,1.28,1.9,1.9,0,0,0,.45.85,1.13,1.13,0,0,0,.74.33,1.93,1.93,0,0,0,1-.32,4.43,4.43,0,0,0,1-.82,5.28,5.28,0,0,0,1.2-2.06A5.19,5.19,0,0,0,185.4,182.76Z" style="fill:#BA68C8"></path><path d="M196.35,165.26a.2.2,0,0,1,.28,0,.46.46,0,0,1,.13.37v1.66a1.08,1.08,0,0,1-.13.52.74.74,0,0,1-.28.35l-2.74,1.58v12.83a1.19,1.19,0,0,1-.12.51.84.84,0,0,1-.29.36l-1.23.71a.24.24,0,0,1-.29,0,.52.52,0,0,1-.12-.38V171l-2.74,1.58a.24.24,0,0,1-.29,0,.52.52,0,0,1-.12-.38v-1.66a1.19,1.19,0,0,1,.12-.51.78.78,0,0,1,.29-.36Z" style="fill:#BA68C8"></path><path d="M237.8,305.15v-4.28c-9.46,5.47-17.17,20.19-17.17,32.81l3.21-1.85C223.84,321.56,230.11,309.6,237.8,305.15Zm12.38,11.47c0-9.1-5.55-13.3-12.38-9.36s-12.37,14.55-12.37,23.65,5.55,13.3,12.37,9.36S250.18,325.72,250.18,316.62ZM227,330c0-7.91,4.83-17.15,10.77-20.58.42-.24.83-.43,1.23-.61l-11.92,22.79C227.06,331.07,227,330.54,227,330Zm.46,3.89,13.43-25.65c3.47-.6,6.2,1.49,7.22,5.55l-13.36,25.52C231.3,339.94,228.54,337.89,227.49,333.87Zm21-17.8c0,.47.06,1,.06,1.48,0,7.92-4.84,17.15-10.78,20.58a10.89,10.89,0,0,1-1.13.57ZM237.8,296.62c-11.22,6.48-20.36,23.93-20.36,38.9s9.14,21.88,20.36,15.39S258.17,327,258.17,312,249,290.14,237.8,296.62Zm0,52.15c-10.34,6-18.75-.39-18.75-14.18s8.41-29.86,18.75-35.83,18.76.39,18.76,14.18S248.15,342.8,237.8,348.77Zm14-33.07c0,10.27-6.27,22.24-14,26.68v4.28c9.47-5.47,17.18-20.18,17.18-32.81Z" style="fill:#BA68C8;opacity:0.2"></path><path d="M203.3,375.7l-76.37,44.12a1.37,1.37,0,0,1-2.07-.78l0-.13a2.3,2.3,0,0,1,1-2.54l76.37-44.13a1.34,1.34,0,0,1,2,.8l0,.13A2.24,2.24,0,0,1,203.3,375.7Z" style="fill:#e0e0e0"></path><path d="M184.93,396.67l-53.48,31a1.54,1.54,0,0,1-2.23-.72l0-.07a2,2,0,0,1,.84-2.49l53.49-31a1.49,1.49,0,0,1,2.18.74l0,.07A2,2,0,0,1,184.93,396.67Z" style="fill:#e0e0e0"></path><path d="M272.69,346.34l-53.48,31a1.53,1.53,0,0,1-2.23-.72l0-.07a2,2,0,0,1,.84-2.49l53.48-31a1.51,1.51,0,0,1,2.19.74l0,.07A2,2,0,0,1,272.69,346.34Z" style="fill:#e0e0e0"></path><path d="M171.91,371a16,16,0,0,1-4.29,5.94,1.5,1.5,0,0,1-.62.4c-.37.07-.49-.24-.54-.66a8.53,8.53,0,0,1,.13-2.08c.16-1.37.36-2.73.58-4.09q.56-3.28,1.2-6.55c.39-.92.76-1.85,1.11-2.8a72.74,72.74,0,0,0,2.55-8.39c.67-2.8,1.29-5.85.78-8.74-.05-.28-.42-.5-.56-.19-1.2,2.66-1.62,5.88-2.22,8.81l-2.1,10.2c-.05.23-.09.45-.14.68q-1,2.42-2.18,4.71-.69,1.35-1.44,2.64a17.51,17.51,0,0,1-1.5,2.41c-.77.92-1.77.63-2.23-.54a3.44,3.44,0,0,1-.2-.78,9.67,9.67,0,0,0,1.77-2.48,21.94,21.94,0,0,0,1.43-3.19,23.15,23.15,0,0,0,.93-3.62c.13-.81.43-2.05-.06-2.73s-1.19-.07-1.57.57a23.23,23.23,0,0,0-1.55,3.3,20.39,20.39,0,0,0-1.56,7.42,2.83,2.83,0,0,0,0,.29c-.08.06-.15.13-.24.19a1.39,1.39,0,0,1-2.29-1.17c0-.39-.47-.55-.63-.21-.54,1.2-.58,2.7-1.23,3.81-.3.5-.85,1.12-1.34.76a1.09,1.09,0,0,1-.39-.88c.06-.18.13-.35.18-.53.13-.38-.38-.65-.56-.39a1.41,1.41,0,0,0-.27.78c-.31.89-.64,1.77-1,2.62a8.74,8.74,0,0,1,0-2.75c.06-.36-.55-.6-.62-.21a26.28,26.28,0,0,1-1,3.58c-.21.59-.45,1.17-.71,1.74a6.68,6.68,0,0,1-1,1.83c-.2.2-.49.39-.74.24s-.29-.77-.3-1.16c0-.65,0-1.31.05-2a23.09,23.09,0,0,1,.61-3.81c.1-.43-.51-.71-.64-.28a45,45,0,0,1-2.15,5.83c-.41.91-.84,1.81-1.32,2.66-.22.4-.8,1.29-1.28,1.27.1-.18.19-.36.29-.53a45.55,45.55,0,0,0,2.77-6.33,28.14,28.14,0,0,0,1.55-6.8,1.91,1.91,0,0,0-.56-1.72,10.44,10.44,0,0,0,.08-3.56c-.39-2.09-1.94-2.86-3.46-2.38-1.82.57-3.26,2.4-4.52,4.13A43.56,43.56,0,0,0,133,377.59a49.76,49.76,0,0,0-1.77,6.47c-.42,2.08-1,4.6-.28,6.65,1.7,4.88,6.43.39,8.34-2a32.61,32.61,0,0,0,3-4.64,1.39,1.39,0,0,0,1.51-.5,9.84,9.84,0,0,0,1.53-2.58c.53-1.1,1-2.23,1.46-3.39,0,.43,0,.86,0,1.29a4.65,4.65,0,0,0,.25,2.15,1.1,1.1,0,0,0,1.07.58c1.07-.1,1.7-1.81,2.17-2.88a22,22,0,0,0,.93-2.54,8.44,8.44,0,0,0,.31,1.32.3.3,0,0,0,.56.08q.61-1.31,1.11-2.67a1.43,1.43,0,0,0,1.38.7c1.47-.36,1.73-2.45,2.2-4.09a2.22,2.22,0,0,0,.87.9,2,2,0,0,0,2.12-.15,3.4,3.4,0,0,0,.93,1.71,1.51,1.51,0,0,0,2.09.13,10.63,10.63,0,0,0,1.94-2.84c.62-1.08,1.22-2.19,1.79-3.32l.64-1.33c-.37,1.85-.71,3.71-1,5.58-.12.79-.23,1.58-.32,2.38a9.29,9.29,0,0,0-.12,2c.12,1.1.82,1.71,1.65,1.37a5,5,0,0,0,1.41-1.1,13.9,13.9,0,0,0,1.48-1.66,18.57,18.57,0,0,0,2.28-4C172.71,370.88,172.08,370.59,171.91,371Zm-1.39-17.62c.34-1.65.66-3.3,1-4.94a27.15,27.15,0,0,1,.84-3.16,20,20,0,0,1-.56,5.33c-.44,2-1,4.06-1.54,6-.34,1.11-.7,2.2-1.08,3.28C169.63,357.73,170.08,355.54,170.52,353.36Zm-30.17,32.58a20.9,20.9,0,0,1-3.61,4.35,10.61,10.61,0,0,1-2.08,1.44c-.72.38-1.51.66-2.19.06-1.31-1.15-1.16-3.53-.89-5.32a48.1,48.1,0,0,1,1.18-5.48,46.42,46.42,0,0,1,4.1-10.13,40.19,40.19,0,0,1,2.9-4.53c1.14-1.52,2.49-3.2,4.16-3.54,2.38-.48,2.53,2.33,2.06,5.14a3.22,3.22,0,0,0-1.87,1.19,14,14,0,0,0-2.56,5.9,18.08,18.08,0,0,0-.36,2.08,4.06,4.06,0,0,1-2,.68c-1.05,0-.9-1.75-.79-2.69a12,12,0,0,1,.76-3c.1-.24-.31-.59-.42-.34a12.88,12.88,0,0,0-.93,3.35,4.11,4.11,0,0,0,.35,2.85c.54.72,1.43.55,2.12.35a6.8,6.8,0,0,0,.81-.32,15.87,15.87,0,0,0,.15,3.71,6,6,0,0,0,.53,1.86C141.33,384.37,140.84,385.17,140.35,385.94Zm5.47-17.16a22.15,22.15,0,0,1-1.09,3.74,10.38,10.38,0,0,1-2.73,4,19.71,19.71,0,0,1,1.26-4.42,8.86,8.86,0,0,1,1.41-2.44,3.16,3.16,0,0,1,1-.82Zm-3.64,14c-.08-.29-.13-.63-.18-.86a12.22,12.22,0,0,1-.19-1.48,15.61,15.61,0,0,1,0-2.9v0a7.56,7.56,0,0,0,.91-.72,12.68,12.68,0,0,0,3.19-5.6c.21-.67.42-1.42.59-2.19,0,.06,0,.12,0,.21a4.23,4.23,0,0,1,0,.71,29.69,29.69,0,0,1-1.29,5.74A42.34,42.34,0,0,1,142.18,382.82ZM160.37,369a23.63,23.63,0,0,1,1.7-5.83,11.54,11.54,0,0,1,1.37-2.61c.05-.07.34-.38.43-.3s.06.31.06.37a3.48,3.48,0,0,1,0,.72q-.1.81-.27,1.62a20.63,20.63,0,0,1-2.22,6.11,11.4,11.4,0,0,1-1.23,1.87A13.7,13.7,0,0,1,160.37,369Zm32.22-9.65-.31-.07c.08-1.56.09-3.13.06-4.67-.05-3-.24-5.91-.57-8.83,0-.3-.07-.6-.12-.9.15-.9.28-1.8.38-2.71.18-1.77.3-4-1-5.05-.17-.14-.44-.13-.48.18a21.26,21.26,0,0,0,.31,6.12c0,.34.09.69.13,1a43.51,43.51,0,0,1-.9,4.29,43,43,0,0,1-1.74,5.32c-.34.86-.71,1.71-1.1,2.54a4.61,4.61,0,0,1-1.74,2.22,2.27,2.27,0,0,1-.21-1.12c0-.37-.48-.62-.58-.2a2.45,2.45,0,0,1-.08.29c.08-1,.19-2,.34-3,.05-.33-.48-.61-.57-.26a18.1,18.1,0,0,1-1.14,3.3,14.53,14.53,0,0,1-.86,1.61c-.18.3-.57,1-.9.92-.75-.1-.19-3,0-3.6,0-.18.09-.35.14-.53.38-.87.73-1.77,1-2.69.13-.36-.36-.69-.52-.36a14.58,14.58,0,0,0-.74,1.83,40.29,40.29,0,0,1-3.13,6c-.73,1.14-1.69,2.91-2.9,3.1-.7.1-.93-.52-.95-1.32a23,23,0,0,0,3.18-4.41c.65-1.18,3.83-7.69.89-7.41-1.28.12-2.08,1.79-2.64,3.12a27.22,27.22,0,0,0-1.6,5.12c-.17.84-.32,1.7-.41,2.56a6.33,6.33,0,0,0,0,.76,19.38,19.38,0,0,1-3.05,2.65c-.24.16.12.63.33.49a20,20,0,0,0,2.79-2.29,2.4,2.4,0,0,0,.21.64c.72,1.36,2.18.69,3-.16a22.37,22.37,0,0,0,3.14-4.75c.17-.32.34-.64.5-1-.14,1-.2,2.36.52,2.74s1.59-.82,2-1.59a15.69,15.69,0,0,0,.82-1.7c0,.35-.05.7-.06,1s.25.53.44.4a2,2,0,0,0,.44-.44,3,3,0,0,0,.32.74.37.37,0,0,0,.36.16c1.69-.5,2.6-3.07,3.35-4.89a44.61,44.61,0,0,0,2-6c.14-.57.28-1.15.4-1.73.12,1.25.22,2.5.28,3.75a73.49,73.49,0,0,1,.07,8.53,6.72,6.72,0,0,0-3.92,1.36,17.59,17.59,0,0,0-4.34,3.88,8.09,8.09,0,0,0-1.69,5.39c.12,1.85,1,3.44,2.43,3.87,3,.92,5.56-3,6.71-6.15a27.72,27.72,0,0,0,1.43-7.58,1.86,1.86,0,0,1,.33,0C193,360.13,193,359.48,192.59,359.38Zm-17.84.68a27.73,27.73,0,0,1,1.11-4.12,9.56,9.56,0,0,1,2-3.8c.19-.18.7-.57.93-.42s.31.74.25,1.18a10.81,10.81,0,0,1-.59,2.2,22.67,22.67,0,0,1-1.85,3.8,23.14,23.14,0,0,1-2.13,3C174.53,361.14,174.67,360.45,174.75,360.06Zm16.54-17.61a18.36,18.36,0,0,1-.2-4.31C191.7,339.23,191.49,341.05,191.29,342.45Zm-.18,21.16c-.63,3.49-2.05,7.48-4.73,9a2.33,2.33,0,0,1-3.55-1.07,6.55,6.55,0,0,1,.39-5.37,13.47,13.47,0,0,1,4.29-4.45,7.58,7.58,0,0,1,4.06-1.76A36.76,36.76,0,0,1,191.11,363.61Z" style="fill:#455a64"></path><path id="freepik--shadow--inject-162" d="M90.72,400.44A74.3,74.3,0,0,0,93,416.86l21.51-12.37,5.73-16.66-5.73-1.09Z" style="fill:#e0e0e0"></path></g></g><g id="freepik--Sticker--inject-162"><g id="freepik--sticker--inject-162"><polygon points="112.58 383.39 70.3 407.8 70.3 425.55 112.58 401.14 120.26 387.83 112.58 383.39" style="fill:#BA68C8"></polygon><path d="M86.51,402.57a.11.11,0,0,1,.16,0,.25.25,0,0,1,.07.21v8.47a.58.58,0,0,1-.07.28.37.37,0,0,1-.16.2l-.69.4a.12.12,0,0,1-.16,0,.25.25,0,0,1-.07-.21v-3.46L83,409.94v3.46a.59.59,0,0,1-.07.29.48.48,0,0,1-.16.2l-.69.4a.13.13,0,0,1-.16,0,.25.25,0,0,1-.07-.21V405.6a.62.62,0,0,1,.07-.29.42.42,0,0,1,.16-.2l.69-.4a.13.13,0,0,1,.16,0,.29.29,0,0,1,.07.22v3.36l2.57-1.48v-3.37a.65.65,0,0,1,.07-.29.47.47,0,0,1,.16-.2Z" style="fill:#fff"></path><path d="M92,406.91a.12.12,0,0,1,.16,0,.28.28,0,0,1,.06.2v.94a.71.71,0,0,1-.06.28.43.43,0,0,1-.16.2l-3.74,2.16a.12.12,0,0,1-.16,0,.25.25,0,0,1-.07-.21V402a.62.62,0,0,1,.07-.29.41.41,0,0,1,.16-.2L92,399.41a.12.12,0,0,1,.16,0,.29.29,0,0,1,.07.21v.93a.82.82,0,0,1-.07.29.45.45,0,0,1-.16.19l-2.75,1.59v2.08l2.56-1.47a.11.11,0,0,1,.16,0,.25.25,0,0,1,.07.21v.93a.65.65,0,0,1-.07.29.39.39,0,0,1-.16.19l-2.56,1.48v2.18Z" style="fill:#fff"></path><path d="M95.75,397.23c.71-.41,1.25-.47,1.62-.17a2.26,2.26,0,0,1,.55,1.79,5.57,5.57,0,0,1-.29,1.8,4.57,4.57,0,0,1-.83,1.48L98,404.69a.35.35,0,0,1,0,.13.53.53,0,0,1-.06.24.43.43,0,0,1-.13.16l-.73.42c-.11.06-.19.07-.25,0a.45.45,0,0,1-.11-.17l-1.12-2.41-1.13.66v3.05a.62.62,0,0,1-.07.29.42.42,0,0,1-.16.2l-.69.4a.12.12,0,0,1-.16,0,.24.24,0,0,1-.07-.2V399a.62.62,0,0,1,.07-.29.42.42,0,0,1,.16-.2Zm-1.28,4.87,1.24-.71a2.4,2.4,0,0,0,.77-.71,2.11,2.11,0,0,0,.29-1.17c0-.49-.1-.76-.29-.81a1,1,0,0,0-.77.19l-1.24.72Z" style="fill:#fff"></path><path d="M103,400.59a.12.12,0,0,1,.17,0,.29.29,0,0,1,.06.21v.93a.79.79,0,0,1-.06.29.4.4,0,0,1-.17.19l-3.73,2.16a.12.12,0,0,1-.17,0,.29.29,0,0,1-.06-.21v-8.47a.79.79,0,0,1,.06-.29.4.4,0,0,1,.17-.19l3.67-2.12a.12.12,0,0,1,.16,0,.29.29,0,0,1,.07.21v.93a.77.77,0,0,1-.07.29.56.56,0,0,1-.16.2l-2.75,1.58v2.09l2.56-1.48a.12.12,0,0,1,.16,0,.27.27,0,0,1,.07.21v.93a.62.62,0,0,1-.07.29.56.56,0,0,1-.16.2L100.18,400v2.17Z" style="fill:#fff"></path></g></g></svg>